<svg width="480" height="450" viewBox="0 0 480 450" fill="none" xmlns="http://www.w3.org/2000/svg">
<rect x="124.778" width="96" height="96" rx="8" transform="rotate(37.0031 124.778 0)" fill="#1F2937"/>
<rect x="366.778" y="5" width="96" height="96" rx="8" transform="rotate(37.0031 366.778 5)" fill="#1F2937"/>
<rect x="402.778" y="202" width="96" height="96" rx="8" transform="rotate(37.0031 402.778 202)" fill="#1F2937"/>
<rect x="234.778" y="315" width="96" height="96" rx="8" transform="rotate(37.0031 234.778 315)" fill="#1F2937"/>
<rect x="57.7784" y="176" width="96" height="96" rx="8" transform="rotate(37.0031 57.7784 176)" fill="#1F2937"/>
<circle cx="246" cy="200" r="72" fill="url(#paint0_linear_140_213)"/>
<path fill-rule="evenodd" clip-rule="evenodd" d="M239.306 167.646V161.231H244.734V167.646H248.189V161.231H253.617V167.646H256.084V176.945L262.603 170.313L264.362 172.043L268.859 167.468L272.731 171.273L268.234 175.848L270.697 178.269L275.194 173.694L279.065 177.499L274.568 182.074L276.328 183.804L269.413 190.839H279.277V193.306H285.692V198.734H279.277V202.189H285.692V207.617H279.277V210.084H269.546L276.395 217.052L274.636 218.782L279.133 223.356L275.262 227.162L270.765 222.587L268.302 225.009L272.799 229.583L268.928 233.389L264.43 228.814L262.671 230.544L256.084 223.843V233.277H253.617V239.692H248.189V233.277H244.734V239.692H239.306V233.277H236.839V223.98L230.321 230.61L228.562 228.881L224.065 233.456L220.194 229.651L224.691 225.076L222.227 222.654L217.73 227.229L213.859 223.425L218.356 218.849L216.596 217.12L223.512 210.084H213.646V207.617H207.231V202.189H213.646V198.734H207.231V193.306H213.646V190.839H223.64L216.661 183.74L218.421 182.01L213.924 177.435L217.794 173.63L222.292 178.205L224.755 175.783L220.258 171.209L224.129 167.403L228.626 171.978L230.386 170.248L236.839 176.813V167.646H239.306ZM246.527 186.668L243.254 183.339V182.776C244.373 182.562 245.527 182.45 246.708 182.45C247.716 182.45 248.705 182.532 249.669 182.689V183.472L246.527 186.668ZM256.727 185.442C254.635 184.066 252.242 183.108 249.669 182.689V174.061H243.254V182.776C240.779 183.25 238.481 184.224 236.47 185.588L230.308 179.32L225.733 183.817L231.873 190.063C230.359 192.169 229.283 194.61 228.776 197.254H220.061V203.669H228.689C229.126 206.35 230.147 208.835 231.617 210.989L225.668 217.042L230.243 221.539L236.105 215.574C238.202 217.072 240.628 218.137 243.254 218.64V226.862H249.669V218.728C252.396 218.283 254.919 217.235 257.099 215.724L262.749 221.472L267.323 216.974L261.651 211.204C263.201 209.001 264.276 206.44 264.728 203.669H272.862V197.254H264.64C264.117 194.521 262.984 192.004 261.389 189.851L267.256 183.882L262.681 179.385L256.727 185.442ZM256.727 185.442C258.529 186.627 260.108 188.122 261.389 189.851L260.418 190.839H256.084V186.097L256.727 185.442ZM264.64 197.254H263.108L260.021 200.395L263.239 203.669H264.728C264.885 202.705 264.967 201.716 264.967 200.708C264.967 199.527 264.854 198.373 264.64 197.254ZM261.651 211.204L260.55 210.084H256.084V214.692L257.099 215.724C258.869 214.497 260.411 212.965 261.651 211.204ZM249.669 218.728V217.317L246.528 214.122L243.254 217.453V218.64C244.373 218.854 245.527 218.967 246.708 218.967C247.716 218.967 248.705 218.885 249.669 218.728ZM236.105 215.574L236.839 214.828V210.084H232.507L231.617 210.989C232.832 212.769 234.353 214.323 236.105 215.574ZM228.689 203.669H229.817L233.034 200.396L229.946 197.254H228.776C228.562 198.373 228.45 199.527 228.45 200.708C228.45 201.716 228.532 202.705 228.689 203.669ZM231.873 190.063C233.129 188.315 234.687 186.798 236.47 185.588L236.839 185.964V190.839H232.635L231.873 190.063ZM247.938 197.254L249.669 199.015V201.775L247.807 203.669H245.248L243.254 201.641V199.15L245.118 197.254H247.938Z" fill="#252422"/>
<defs>
<linearGradient id="paint0_linear_140_213" x1="246.393" y1="13.7087" x2="246.393" y2="287.379" gradientUnits="userSpaceOnUse">
<stop stop-color="#C6E4D0"/>
<stop offset="0.99155" stop-color="#C6E4D0" stop-opacity="0"/>
</linearGradient>
</defs>
</svg>
