<svg width="538" height="301" viewBox="0 0 538 301" fill="none" xmlns="http://www.w3.org/2000/svg">
<path d="M362.506 277.595H335.819V277.797H362.506V277.595Z" fill="#D1D5DB"/>
<path d="M266.879 279.787H259.877V279.988H266.879V279.787Z" fill="#D1D5DB"/>
<path d="M335.014 270.118H319.551V270.319H335.014V270.118Z" fill="#D1D5DB"/>
<path d="M77.0698 271.472H42.2695V271.673H77.0698V271.472Z" fill="#D1D5DB"/>
<path d="M89.3494 271.472H84.249V271.673H89.3494V271.472Z" fill="#D1D5DB"/>
<path d="M181.415 274.872H105.932V275.073H181.415V274.872Z" fill="#D1D5DB"/>
<path d="M192.09 228.694H36.5002C35.28 228.694 34.1098 228.21 33.247 227.347C32.3841 226.484 31.8994 225.314 31.8994 224.094V5.38932C31.91 4.1761 32.3995 3.01618 33.2611 2.16206C34.1228 1.30793 35.287 0.828735 36.5002 0.828781H192.09C192.694 0.828781 193.293 0.947784 193.851 1.179C194.409 1.41021 194.916 1.74911 195.344 2.17633C195.771 2.60356 196.11 3.11075 196.341 3.66895C196.572 4.22714 196.691 4.82542 196.691 5.4296V224.094C196.691 224.698 196.572 225.296 196.341 225.854C196.11 226.412 195.771 226.92 195.344 227.347C194.916 227.774 194.409 228.113 193.851 228.344C193.293 228.575 192.694 228.694 192.09 228.694ZM36.5002 0.989931C35.3341 0.992061 34.2163 1.45625 33.3918 2.28083C32.5672 3.10542 32.103 4.22318 32.1009 5.38932V224.094C32.103 225.26 32.5672 226.378 33.3918 227.202C34.2163 228.027 35.3341 228.491 36.5002 228.493H192.09C193.256 228.491 194.374 228.027 195.199 227.202C196.023 226.378 196.488 225.26 196.49 224.094V5.38932C196.488 4.22318 196.023 3.10542 195.199 2.28083C194.374 1.45625 193.256 0.992061 192.09 0.989931H36.5002Z" fill="#D1D5DB"/>
<path d="M402.874 264.631H0V264.832H402.874V264.631Z" fill="#D1D5DB"/>
<path d="M96.1493 210.122C95.4725 202.338 87.5278 199.43 78.1086 200.252C68.6894 201.073 61.3813 205.32 62.042 213.103L96.1493 210.122Z" fill="#D1D5DB"/>
<path d="M77.8027 196.698C82.1699 196.311 83.5638 192.621 83.1851 188.254C82.8064 183.887 80.7679 180.495 76.4168 180.873C72.0658 181.252 70.6557 184.95 71.0344 189.317C71.4131 193.685 73.4355 197.077 77.8027 196.698Z" fill="#D1D5DB"/>
<path d="M274.035 44.3392C274.111 45.203 273.93 46.0701 273.513 46.8308C273.097 47.5914 272.464 48.2115 271.695 48.6124C270.926 49.0133 270.055 49.1771 269.193 49.083C268.331 48.989 267.516 48.6413 266.852 48.084C266.187 47.5267 265.703 46.7849 265.46 45.9523C265.218 45.1198 265.227 44.2339 265.488 43.4069C265.749 42.5798 266.25 41.8488 266.926 41.3062C267.603 40.7636 268.425 40.4339 269.289 40.3588C270.446 40.2582 271.595 40.6209 272.485 41.3672C273.375 42.1135 273.932 43.1824 274.035 44.3392Z" fill="#F5F5F5"/>
<path d="M298.264 42.1959C298.339 43.058 298.156 43.9229 297.739 44.6813C297.323 45.4396 296.691 46.0574 295.923 46.4565C295.155 46.8555 294.286 47.018 293.426 46.9232C292.566 46.8285 291.753 46.4808 291.091 45.9242C290.428 45.3676 289.946 44.627 289.704 43.7961C289.462 42.9652 289.472 42.0814 289.733 41.2563C289.994 40.4311 290.493 39.7019 291.168 39.1606C291.843 38.6194 292.664 38.2905 293.526 38.2155C294.682 38.1172 295.829 38.4809 296.717 39.227C297.605 39.973 298.161 41.0406 298.264 42.1959Z" fill="#F5F5F5"/>
<path d="M322.5 40.0768C322.577 40.9406 322.395 41.8077 321.979 42.5684C321.562 43.329 320.93 43.9491 320.161 44.35C319.392 44.7509 318.521 44.9147 317.659 44.8206C316.797 44.7266 315.982 44.3789 315.317 43.8216C314.653 43.2643 314.169 42.5225 313.926 41.6899C313.683 40.8573 313.693 39.9715 313.954 39.1445C314.215 38.3174 314.715 37.5864 315.392 37.0438C316.068 36.5012 316.891 36.1715 317.755 36.0964C318.912 35.9958 320.061 36.3585 320.951 37.1048C321.841 37.8511 322.398 38.92 322.5 40.0768Z" fill="#F5F5F5"/>
<path d="M276.194 69.0112C276.271 69.8751 276.089 70.7422 275.673 71.5028C275.256 72.2635 274.623 72.8835 273.854 73.2844C273.085 73.6853 272.215 73.8491 271.353 73.755C270.491 73.661 269.676 73.3133 269.011 72.756C268.347 72.1988 267.863 71.4569 267.62 70.6243C267.377 69.7918 267.387 68.9059 267.648 68.0789C267.909 67.2518 268.409 66.5208 269.086 65.9782C269.762 65.4356 270.585 65.1059 271.448 65.0308C272.605 64.9302 273.755 65.2929 274.645 66.0392C275.535 66.7855 276.092 67.8544 276.194 69.0112Z" fill="#F5F5F5"/>
<path d="M300.423 66.9002C300.498 67.7622 300.315 68.6271 299.899 69.3855C299.482 70.1439 298.85 70.7616 298.082 71.1607C297.314 71.5598 296.445 71.7222 295.585 71.6274C294.725 71.5327 293.912 71.185 293.25 70.6284C292.587 70.0718 292.105 69.3312 291.863 68.5004C291.621 67.6695 291.632 66.7856 291.892 65.9605C292.153 65.1354 292.652 64.4061 293.328 63.8648C294.003 63.3236 294.823 62.9947 295.685 62.9198C296.258 62.87 296.834 62.9335 297.382 63.1066C297.93 63.2797 298.439 63.559 298.879 63.9286C299.318 64.2983 299.681 64.7509 299.946 65.2608C300.211 65.7706 300.373 66.3277 300.423 66.9002Z" fill="#F5F5F5"/>
<path d="M324.661 64.773C324.737 65.6368 324.556 66.5039 324.139 67.2646C323.723 68.0252 323.09 68.6452 322.321 69.0461C321.552 69.447 320.681 69.6108 319.819 69.5168C318.957 69.4227 318.142 69.0751 317.478 68.5178C316.813 67.9605 316.329 67.2187 316.086 66.3861C315.844 65.5535 315.853 64.6677 316.114 63.8406C316.375 63.0136 316.875 62.2825 317.552 61.74C318.229 61.1974 319.051 60.8677 319.915 60.7926C321.072 60.692 322.221 61.0547 323.111 61.801C324.001 62.5472 324.558 63.6162 324.661 64.773Z" fill="#F5F5F5"/>
<path d="M278.354 93.7155C278.429 94.5775 278.247 95.4424 277.83 96.2008C277.413 96.9592 276.781 97.5769 276.013 97.976C275.245 98.3751 274.376 98.5375 273.516 98.4427C272.656 98.348 271.843 98.0003 271.181 97.4437C270.518 96.8871 270.036 96.1466 269.794 95.3157C269.553 94.4848 269.563 93.6009 269.823 92.7758C270.084 91.9507 270.584 91.2214 271.259 90.6801C271.934 90.1389 272.754 89.81 273.616 89.7351C274.189 89.6842 274.766 89.7469 275.314 89.9196C275.863 90.0923 276.372 90.3716 276.812 90.7414C277.252 91.1112 277.615 91.5643 277.88 92.0746C278.144 92.585 278.305 93.1426 278.354 93.7155Z" fill="#F5F5F5"/>
<path d="M302.591 91.5883C302.667 92.4521 302.486 93.3192 302.069 94.0799C301.653 94.8405 301.02 95.4605 300.251 95.8614C299.482 96.2624 298.611 96.4261 297.749 96.3321C296.887 96.2381 296.072 95.8904 295.408 95.3331C294.743 94.7758 294.259 94.034 294.016 93.2014C293.774 92.3688 293.783 91.483 294.044 90.6559C294.305 89.8289 294.806 89.0979 295.482 88.5553C296.159 88.0127 296.981 87.683 297.845 87.6079C299.002 87.5073 300.152 87.87 301.041 88.6163C301.931 89.3626 302.488 90.4315 302.591 91.5883Z" fill="#F5F5F5"/>
<path d="M326.819 89.4611C326.896 90.325 326.714 91.1921 326.298 91.9527C325.881 92.7134 325.248 93.3334 324.479 93.7343C323.71 94.1352 322.84 94.299 321.978 94.2049C321.116 94.1109 320.301 93.7632 319.636 93.2059C318.972 92.6487 318.488 91.9068 318.245 91.0742C318.002 90.2417 318.012 89.3558 318.273 88.5288C318.534 87.7017 319.034 86.9707 319.711 86.4281C320.387 85.8855 321.209 85.5558 322.073 85.4807C323.23 85.3801 324.38 85.7428 325.27 86.4891C326.16 87.2354 326.717 88.3043 326.819 89.4611Z" fill="#F5F5F5"/>
<path d="M321.582 90.8954L271.803 95.2464L315.942 41.6158L270.732 45.572C270.605 45.5842 270.478 45.5709 270.357 45.5331C270.236 45.4953 270.124 45.4337 270.027 45.3518C269.93 45.27 269.851 45.1696 269.793 45.0566C269.736 44.9436 269.701 44.8202 269.692 44.6937C269.67 44.4405 269.749 44.1888 269.912 43.9939C270.075 43.799 270.309 43.6768 270.562 43.6543L320.35 39.3033L276.203 92.9339L321.429 88.9777C321.684 88.9575 321.937 89.0382 322.133 89.2025C322.329 89.3668 322.452 89.6014 322.477 89.8559C322.487 89.983 322.471 90.1107 322.432 90.2318C322.392 90.3529 322.329 90.465 322.246 90.5616C322.163 90.6582 322.061 90.7374 321.947 90.7947C321.834 90.852 321.709 90.8862 321.582 90.8954Z" fill="#E6E6E6"/>
<path d="M507.1 137.62C507.023 137.385 506.879 137.178 506.686 137.025C506.492 136.872 506.258 136.779 506.012 136.758C503.848 136.658 501.798 135.753 500.267 134.22C498.277 132.213 497.109 129.176 496.915 125.566C496.897 125.24 496.755 124.934 496.518 124.709C496.282 124.485 495.968 124.359 495.642 124.357C495.466 124.358 495.292 124.395 495.13 124.465C494.968 124.535 494.822 124.637 494.701 124.765C494.58 124.893 494.486 125.044 494.424 125.21C494.363 125.375 494.336 125.551 494.345 125.727C494.57 129.965 496.005 133.591 498.446 136.033C500.358 137.948 502.895 139.112 505.593 139.312H505.778C505.99 139.328 506.203 139.292 506.397 139.206C506.592 139.12 506.762 138.988 506.893 138.82C507.023 138.653 507.111 138.455 507.147 138.246C507.183 138.037 507.167 137.822 507.1 137.62Z" fill="#D1D5DB"/>
<path d="M504.521 153.082C493.845 152.148 486.142 144.872 483.709 133.511C483.67 133.34 483.666 133.163 483.698 132.991C483.729 132.819 483.795 132.655 483.891 132.509C483.988 132.363 484.112 132.238 484.258 132.142C484.404 132.045 484.568 131.979 484.74 131.948C485.066 131.89 485.402 131.959 485.678 132.142C485.954 132.325 486.149 132.608 486.223 132.931C488.406 143.139 495.255 149.682 504.755 150.512C515.165 151.422 526.341 144.574 528.347 127.314C528.382 126.978 528.548 126.669 528.808 126.453C529.069 126.237 529.404 126.133 529.741 126.162C529.912 126.176 530.078 126.224 530.23 126.304C530.382 126.383 530.516 126.492 530.625 126.624C530.734 126.757 530.815 126.909 530.864 127.074C530.913 127.238 530.929 127.41 530.91 127.58C528.984 143.856 518.284 154.283 504.521 153.082Z" fill="#D1D5DB"/>
<path d="M484.378 122.19C484.207 122.176 484.041 122.128 483.889 122.048C483.737 121.969 483.603 121.86 483.494 121.728C483.385 121.595 483.304 121.443 483.255 121.279C483.206 121.114 483.191 120.942 483.209 120.772C485.127 104.496 495.828 94.0612 509.582 95.2699C521.668 96.3254 529.766 105.35 531.031 118.943C531.044 119.113 531.023 119.285 530.969 119.447C530.915 119.61 530.829 119.76 530.717 119.889C530.604 120.018 530.467 120.123 530.314 120.199C530.16 120.274 529.993 120.318 529.822 120.329C529.486 120.344 529.157 120.229 528.904 120.006C528.651 119.784 528.495 119.472 528.468 119.136C527.3 106.889 520.072 98.7749 509.364 97.8402C498.994 96.9297 487.77 103.771 485.772 121.014C485.758 121.182 485.71 121.347 485.632 121.497C485.555 121.648 485.448 121.781 485.319 121.891C485.189 122 485.039 122.083 484.878 122.134C484.717 122.185 484.547 122.204 484.378 122.19Z" fill="#D1D5DB"/>
<path d="M505.045 146.177C503.131 146.024 501.255 145.555 499.494 144.791C499.329 144.719 499.182 144.614 499.06 144.482C498.939 144.35 498.846 144.194 498.788 144.025C498.729 143.855 498.707 143.675 498.722 143.497C498.736 143.318 498.788 143.144 498.873 142.986C499.024 142.709 499.273 142.498 499.57 142.394C499.868 142.29 500.194 142.3 500.485 142.422C502.165 143.144 503.96 143.559 505.787 143.647C513.675 144.098 522.006 138.506 522.828 125.002C523.328 116.679 520.475 109.959 515.157 106.744C514.882 106.577 514.679 106.314 514.588 106.005C514.497 105.697 514.525 105.365 514.666 105.076C514.746 104.916 514.858 104.774 514.995 104.66C515.133 104.545 515.292 104.46 515.463 104.409C515.635 104.358 515.815 104.343 515.992 104.365C516.17 104.387 516.341 104.445 516.495 104.536C522.659 108.259 525.963 115.816 525.399 125.155C524.593 138.176 516.487 146.846 505.634 146.225L505.045 146.177Z" fill="#D1D5DB"/>
<path d="M493.572 138.144C493.424 138.244 493.256 138.313 493.08 138.346C492.904 138.379 492.723 138.375 492.548 138.335C492.374 138.295 492.209 138.219 492.065 138.113C491.921 138.007 491.8 137.872 491.711 137.717C489.322 133.276 488.273 128.238 488.689 123.213C489.447 110.748 496.916 102.264 507.06 102.119C507.239 102.115 507.416 102.148 507.582 102.217C507.747 102.285 507.896 102.386 508.02 102.515C508.144 102.644 508.24 102.796 508.303 102.964C508.365 103.132 508.392 103.31 508.382 103.488C508.362 103.811 508.221 104.114 507.989 104.338C507.756 104.561 507.447 104.69 507.125 104.697C499.599 104.842 492.041 110.531 491.268 123.366C490.876 127.902 491.811 132.454 493.959 136.468C494.12 136.746 494.17 137.076 494.098 137.39C494.027 137.704 493.839 137.979 493.572 138.16V138.144Z" fill="#D1D5DB"/>
<path d="M511.185 137.129C511.062 136.842 511.048 136.521 511.145 136.225C511.241 135.928 511.441 135.677 511.708 135.517C515.101 133.478 517.179 129.2 517.212 124.035C517.212 119.902 516.043 116.405 513.836 114.189C512.978 113.339 511.956 112.674 510.833 112.233C509.709 111.793 508.507 111.586 507.301 111.627C503.329 111.627 500.106 113.81 498.325 117.646C498.188 117.937 497.945 118.166 497.647 118.287C497.348 118.408 497.015 118.412 496.713 118.298C496.545 118.236 496.392 118.139 496.263 118.015C496.134 117.89 496.032 117.741 495.964 117.575C495.896 117.409 495.863 117.231 495.867 117.052C495.871 116.872 495.912 116.696 495.988 116.534C498.196 111.836 502.329 109.056 507.269 109.048C508.816 109.008 510.355 109.282 511.794 109.852C513.233 110.423 514.541 111.278 515.64 112.368C518.34 115.075 519.806 119.225 519.774 124.059C519.726 130.143 517.163 135.251 512.989 137.757C512.831 137.843 512.657 137.896 512.478 137.91C512.298 137.925 512.118 137.902 511.948 137.843C511.778 137.784 511.622 137.69 511.49 137.567C511.359 137.444 511.255 137.294 511.185 137.129Z" fill="#D1D5DB"/>
<path d="M501.903 127.613C501.731 127.683 501.546 127.715 501.36 127.707C501.174 127.699 500.993 127.65 500.827 127.565C500.662 127.48 500.517 127.361 500.402 127.215C500.288 127.068 500.206 126.899 500.163 126.718C500.074 126.372 500.01 126.009 499.953 125.639C499.22 120.804 501.815 116.622 505.98 115.873C506.95 115.662 507.956 115.681 508.917 115.929C509.879 116.176 510.768 116.646 511.516 117.299C511.656 117.424 511.766 117.578 511.838 117.751C511.911 117.925 511.943 118.112 511.933 118.299C511.923 118.487 511.871 118.669 511.78 118.834C511.69 118.998 511.564 119.14 511.411 119.249L511.33 119.305C511.089 119.473 510.797 119.553 510.503 119.531C510.21 119.509 509.933 119.387 509.719 119.184C509.267 118.803 508.733 118.532 508.158 118.392C507.583 118.252 506.984 118.247 506.407 118.379C503.233 118.951 502.024 122.254 502.475 125.22C502.524 125.51 502.572 125.792 502.644 126.025C502.722 126.329 502.688 126.65 502.547 126.93C502.406 127.21 502.169 127.43 501.879 127.548L501.903 127.613Z" fill="#D1D5DB"/>
<path d="M506.165 132.576C505.962 132.556 505.767 132.485 505.599 132.369C505.431 132.253 505.296 132.095 505.205 131.912C505.115 131.729 505.073 131.526 505.083 131.322C505.093 131.118 505.155 130.92 505.263 130.747L505.376 130.57C505.491 130.385 505.655 130.236 505.85 130.138C506.044 130.04 506.262 129.997 506.479 130.014C506.884 130.037 507.289 130.013 507.688 129.941C510.46 129.442 511.717 126.863 511.717 124.237C511.709 123.921 511.815 123.613 512.017 123.37C512.218 123.127 512.501 122.966 512.813 122.915C512.991 122.888 513.174 122.898 513.348 122.946C513.523 122.994 513.685 123.078 513.825 123.193C513.965 123.308 514.079 123.451 514.16 123.612C514.241 123.774 514.287 123.951 514.295 124.132C514.368 128.338 511.878 131.811 508.147 132.479C507.494 132.6 506.827 132.633 506.165 132.576Z" fill="#D1D5DB"/>
<path d="M506.737 127.814C506.086 127.759 505.469 127.502 504.972 127.079C504.475 126.655 504.123 126.087 503.965 125.453C503.92 125.274 503.918 125.087 503.959 124.908C504.001 124.728 504.084 124.56 504.203 124.419C504.322 124.278 504.473 124.168 504.643 124.097C504.813 124.026 504.998 123.996 505.182 124.011H505.48C505.706 124.035 505.92 124.123 506.096 124.266C506.272 124.409 506.402 124.601 506.471 124.817C506.499 124.929 506.562 125.03 506.65 125.105C506.738 125.18 506.847 125.226 506.963 125.236C507.583 125.292 507.688 124.43 507.704 124.22C507.741 123.907 507.682 123.589 507.535 123.31C507.313 123.041 507.198 122.7 507.213 122.351C507.233 122.095 507.329 121.851 507.489 121.65C507.65 121.449 507.866 121.301 508.111 121.224C508.356 121.147 508.618 121.145 508.865 121.218C509.111 121.291 509.33 121.436 509.493 121.634C510.122 122.428 510.411 123.439 510.299 124.446C510.089 126.565 508.598 127.975 506.737 127.814Z" fill="#D1D5DB"/>
<path d="M482.5 98.9763C482.332 98.9621 482.168 98.9147 482.018 98.8369C481.868 98.759 481.735 98.6522 481.626 98.5226C481.517 98.3931 481.435 98.2432 481.385 98.0819C481.335 97.9205 481.317 97.7507 481.332 97.5824L482.307 86.4066L493.483 87.3896C493.651 87.4038 493.815 87.4512 493.965 87.5291C494.115 87.6069 494.249 87.7137 494.357 87.8433C494.466 87.9729 494.548 88.1227 494.598 88.2841C494.649 88.4455 494.667 88.6152 494.651 88.7836C494.637 88.9524 494.59 89.1167 494.512 89.2672C494.434 89.4177 494.327 89.5514 494.198 89.6607C494.068 89.7699 493.919 89.8526 493.757 89.9039C493.596 89.9553 493.426 89.9743 493.257 89.96L484.652 89.2026L483.902 97.808C483.887 97.9768 483.839 98.141 483.76 98.2911C483.681 98.4412 483.574 98.5744 483.444 98.6829C483.313 98.7914 483.163 98.8732 483.001 98.9235C482.839 98.9739 482.669 98.9918 482.5 98.9763Z" fill="#D1D5DB"/>
<path d="M535.623 103.625C535.455 103.611 535.291 103.564 535.141 103.486C534.991 103.408 534.858 103.301 534.749 103.172C534.64 103.042 534.558 102.892 534.508 102.731C534.458 102.57 534.44 102.4 534.455 102.232L535.204 93.6261L526.599 92.8768C526.43 92.8616 526.266 92.8133 526.116 92.7346C525.966 92.6559 525.833 92.5483 525.724 92.4181C525.616 92.2879 525.534 92.1375 525.483 91.9757C525.433 91.8138 525.415 91.6436 525.431 91.4748C525.445 91.3063 525.492 91.1423 525.57 90.9922C525.648 90.8421 525.755 90.709 525.884 90.6003C526.014 90.4917 526.164 90.4098 526.325 90.3594C526.487 90.309 526.656 90.291 526.825 90.3065L538 91.2814L537.025 102.481C536.989 102.818 536.821 103.127 536.559 103.341C536.297 103.555 535.961 103.657 535.623 103.625Z" fill="#D1D5DB"/>
<path d="M531.667 163.718L520.492 162.743C520.323 162.728 520.159 162.68 520.008 162.601C519.858 162.522 519.725 162.415 519.617 162.285C519.508 162.154 519.426 162.004 519.376 161.842C519.326 161.68 519.308 161.51 519.323 161.341C519.337 161.173 519.385 161.009 519.463 160.859C519.541 160.709 519.647 160.575 519.777 160.467C519.907 160.358 520.056 160.276 520.218 160.226C520.379 160.175 520.549 160.157 520.717 160.173L529.323 160.922L530.072 152.325C530.086 152.155 530.134 151.99 530.212 151.839C530.29 151.688 530.398 151.554 530.528 151.445C530.658 151.335 530.809 151.253 530.971 151.202C531.134 151.151 531.305 151.133 531.474 151.149C531.642 151.163 531.806 151.21 531.957 151.288C532.107 151.366 532.24 151.473 532.348 151.602C532.457 151.732 532.539 151.882 532.589 152.043C532.64 152.204 532.658 152.374 532.642 152.542L531.667 163.718Z" fill="#D1D5DB"/>
<path d="M470.063 158.998L471.53 147.876C471.553 147.708 471.608 147.546 471.694 147.4C471.779 147.253 471.892 147.125 472.027 147.022C472.162 146.92 472.316 146.845 472.48 146.801C472.644 146.758 472.815 146.748 472.983 146.771C473.15 146.792 473.312 146.847 473.458 146.931C473.605 147.016 473.733 147.128 473.836 147.263C473.939 147.397 474.014 147.55 474.057 147.714C474.101 147.877 474.111 148.047 474.088 148.215L472.96 156.779L481.516 157.907C481.685 157.929 481.847 157.983 481.995 158.068C482.142 158.153 482.271 158.266 482.375 158.401C482.478 158.536 482.554 158.691 482.598 158.855C482.641 159.019 482.652 159.191 482.629 159.359C482.608 159.527 482.553 159.689 482.469 159.835C482.384 159.982 482.272 160.11 482.137 160.213C482.003 160.316 481.85 160.391 481.686 160.434C481.523 160.478 481.353 160.488 481.185 160.465L470.063 158.998Z" fill="#D1D5DB"/>
<path d="M302.397 208.825L291.222 207.842L292.197 196.674C292.229 196.333 292.395 196.019 292.657 195.799C292.919 195.579 293.257 195.471 293.599 195.498C293.767 195.513 293.932 195.561 294.082 195.64C294.232 195.719 294.365 195.826 294.474 195.956C294.582 196.087 294.664 196.237 294.714 196.399C294.765 196.561 294.782 196.731 294.767 196.9L294.018 205.489L302.615 206.246C302.784 206.261 302.948 206.308 303.099 206.386C303.249 206.463 303.383 206.57 303.492 206.699C303.601 206.829 303.684 206.979 303.735 207.14C303.787 207.301 303.806 207.471 303.791 207.64C303.763 207.982 303.6 208.298 303.339 208.52C303.077 208.742 302.739 208.851 302.397 208.825Z" fill="#D1D5DB"/>
<path d="M60.2138 184.644C60.0038 184.66 59.796 184.593 59.6349 184.457C59.4738 184.322 59.3721 184.129 59.3516 183.919L58.7554 177.054L65.6204 176.45C65.8303 176.434 66.0381 176.501 66.1992 176.637C66.3604 176.772 66.462 176.965 66.4825 177.175C66.496 177.383 66.428 177.589 66.2927 177.749C66.1574 177.908 65.9654 178.009 65.7573 178.029L60.4716 178.496L60.9309 183.782C60.9468 183.991 60.8808 184.197 60.7469 184.358C60.6131 184.519 60.4219 184.622 60.2138 184.644Z" fill="#E0E0E0"/>
<path d="M92.8785 181.784C92.6698 181.8 92.4631 181.734 92.3022 181.6C92.1413 181.466 92.0388 181.275 92.0164 181.067L91.5571 175.773L86.2633 176.24C86.0534 176.256 85.8456 176.189 85.6845 176.053C85.5233 175.918 85.4216 175.725 85.4012 175.515C85.3854 175.305 85.4525 175.097 85.5881 174.936C85.7236 174.775 85.9168 174.673 86.1264 174.653L92.9913 174.057L93.5956 180.922C93.6115 181.13 93.5455 181.337 93.4117 181.498C93.2778 181.659 93.0866 181.761 92.8785 181.784Z" fill="#E0E0E0"/>
<path d="M96.2628 211.363L89.3898 211.967C89.1798 211.983 88.9721 211.916 88.8109 211.78C88.6498 211.645 88.5481 211.451 88.5276 211.242C88.5119 211.032 88.579 210.824 88.7145 210.663C88.85 210.502 89.0433 210.4 89.2528 210.38L94.5385 209.921L94.0793 204.635C94.0634 204.426 94.1294 204.219 94.2632 204.058C94.3971 203.898 94.5883 203.795 94.7964 203.773C95.0051 203.757 95.2118 203.823 95.3727 203.957C95.5336 204.09 95.6361 204.282 95.6585 204.49L96.2628 211.363Z" fill="#E0E0E0"/>
<path d="M68.8833 213.756L62.0425 214.352L61.4382 207.479C61.4247 207.27 61.4927 207.065 61.6281 206.905C61.7634 206.746 61.9553 206.645 62.1634 206.625C62.3708 206.611 62.5754 206.678 62.7346 206.812C62.8937 206.946 62.9951 207.136 63.0175 207.342L63.4848 212.636L68.7705 212.169C68.9805 212.153 69.1883 212.22 69.3494 212.355C69.5105 212.491 69.6122 212.684 69.6327 212.894C69.6403 213 69.627 213.106 69.5935 213.207C69.5599 213.307 69.5068 213.4 69.4372 213.481C69.3676 213.561 69.2828 213.626 69.1877 213.673C69.0927 213.721 68.9892 213.749 68.8833 213.756Z" fill="#E0E0E0"/>
<path d="M92.323 70.1232L66.0717 72.3793L65.5318 66.2314C65.4924 63.2973 66.5638 60.4567 68.5312 58.2796C70.4987 56.1024 73.2165 54.7497 76.1397 54.4928C79.0628 54.2358 81.975 55.0937 84.292 56.8942C86.6091 58.6948 88.1596 61.3049 88.6326 64.2009L88.9388 67.7784L92.7339 67.4481L92.4196 63.8706C92.2429 61.8527 91.6705 59.8894 90.7351 58.0928C89.7996 56.2962 88.5195 54.7014 86.9677 53.3995C85.4159 52.0977 83.6229 51.1142 81.691 50.5052C79.7592 49.8963 77.7263 49.6738 75.7084 49.8505C71.6332 50.2074 67.8667 52.1685 65.2374 55.3025C63.9355 56.8543 62.952 58.6473 62.3431 60.5792C61.7342 62.511 61.5117 64.5439 61.6884 66.5618L62.2283 72.7499C60.7335 73.0425 59.3996 73.8774 58.4834 75.0942C57.5671 76.3109 57.1331 77.8235 57.2648 79.3409L59.1422 100.806C59.2092 101.616 59.4355 102.405 59.8083 103.128C60.181 103.85 60.6928 104.492 61.3142 105.016C61.9356 105.54 62.6544 105.936 63.4294 106.181C64.2043 106.427 65.0201 106.517 65.83 106.446L95.2639 103.876C96.0741 103.809 96.863 103.583 97.5854 103.21C98.3079 102.837 98.9495 102.325 99.4736 101.704C99.9977 101.083 100.394 100.364 100.639 99.5888C100.885 98.8139 100.975 97.9981 100.904 97.1882L99.0268 75.7231C98.9549 74.915 98.7244 74.129 98.3484 73.4101C97.9725 72.6912 97.4585 72.0534 96.8359 71.5333C96.2132 71.0132 95.4942 70.6209 94.7198 70.3789C93.9454 70.137 93.131 70.0501 92.323 70.1232ZM81.1553 86.6652L81.7999 94.0539C81.8433 94.3513 81.8255 94.6544 81.7476 94.9446C81.6697 95.2349 81.5334 95.5062 81.347 95.7419C81.1607 95.9776 80.9281 96.1728 80.6636 96.3155C80.3991 96.4582 80.1083 96.5454 79.809 96.5718C79.5096 96.5982 79.208 96.5632 78.9226 96.4689C78.6373 96.3746 78.3742 96.223 78.1495 96.0235C77.9247 95.824 77.7431 95.5807 77.6157 95.3085C77.4883 95.0363 77.4178 94.741 77.4086 94.4406L76.764 87.0439C76.0992 86.6357 75.5803 86.0281 75.2809 85.3078C74.9816 84.5875 74.9171 83.7911 75.0967 83.032C75.2764 82.2729 75.6909 81.5898 76.2813 81.08C76.8717 80.5703 77.6079 80.2597 78.3851 80.1927C79.1623 80.1257 79.9408 80.3056 80.6098 80.7068C81.2788 81.1079 81.8041 81.7099 82.111 82.4271C82.418 83.1442 82.4908 83.9399 82.3192 84.7008C82.1476 85.4618 81.7403 86.1492 81.1553 86.6652Z" fill="#D1D5DB"/>
<path d="M137.331 82.5236L134.68 78.1806C133.344 78.3709 131.988 78.3709 130.652 78.1806L127.993 82.5075L127.485 82.3705C125.762 81.9166 124.109 81.2308 122.57 80.332L122.119 80.0742L123.239 75.3686C123.261 75.2773 123.3 75.1912 123.355 75.1154C123.411 75.0395 123.48 74.9754 123.561 74.9266C123.641 74.8779 123.73 74.8456 123.823 74.8316C123.915 74.8175 124.01 74.822 124.101 74.8448C124.284 74.8888 124.441 75.0034 124.54 75.1635C124.638 75.3237 124.668 75.5162 124.625 75.6989L123.738 79.3651C124.883 79.9889 126.091 80.4912 127.34 80.8638L129.935 76.6256L130.41 76.7061C131.915 76.9479 133.449 76.9479 134.954 76.7061L135.422 76.6256L138.016 80.8638C139.267 80.4941 140.474 79.9917 141.618 79.3651L140.466 74.5306L140.853 74.2486C141.902 73.4916 142.843 72.5942 143.648 71.5816C143.76 71.4357 143.925 71.339 144.107 71.3119C144.289 71.2849 144.474 71.3295 144.623 71.4365C144.702 71.4909 144.768 71.5607 144.819 71.6416C144.869 71.7225 144.903 71.8129 144.917 71.9071C144.931 72.0014 144.926 72.0976 144.902 72.1899C144.878 72.2822 144.835 72.3685 144.777 72.4437C143.985 73.4436 143.073 74.3421 142.061 75.1188L143.246 80.058L142.786 80.3159C141.25 81.2132 139.599 81.899 137.879 82.3544L137.331 82.5236ZM121.039 73.0641C120.822 72.8144 120.604 72.5485 120.395 72.2584L115.455 73.4428L115.189 72.9916C114.297 71.4498 113.612 69.7972 113.151 68.0766L113.022 67.5689L117.349 64.91C117.159 63.5738 117.159 62.2174 117.349 60.8812L113.022 58.2303L113.151 57.7146C113.612 55.9965 114.297 54.3466 115.189 52.8076L115.455 52.3484L120.395 53.5328C121.219 52.4536 122.184 51.489 123.263 50.6643L122.369 46.9257C122.325 46.743 122.356 46.5504 122.454 46.3903C122.552 46.2301 122.71 46.1155 122.892 46.0716C122.982 46.0501 123.076 46.0465 123.167 46.0613C123.258 46.076 123.346 46.1086 123.424 46.1573C123.503 46.206 123.571 46.2698 123.625 46.3449C123.679 46.4201 123.718 46.5052 123.738 46.5953L124.858 51.2525L124.472 51.5265C123.23 52.4197 122.142 53.5081 121.249 54.7495L120.967 55.1362L116.132 53.984C115.506 55.1277 115.003 56.3351 114.633 57.5857L118.864 60.1802L118.791 60.6476C118.522 62.1504 118.522 63.6891 118.791 65.192L118.864 65.6674L114.633 68.2619C115.005 69.5094 115.507 70.714 116.132 71.8555L120.967 70.7033L121.249 71.0901C121.499 71.4554 121.768 71.8077 122.054 72.1456C122.179 72.2759 122.248 72.449 122.248 72.629C122.248 72.809 122.179 72.9821 122.054 73.1125C121.986 73.1782 121.904 73.2293 121.815 73.2626C121.726 73.2959 121.631 73.3107 121.536 73.3062C121.441 73.3017 121.348 73.2779 121.263 73.2363C121.177 73.1947 121.101 73.1361 121.039 73.0641ZM149.837 73.459L148.016 73.0239C147.833 72.9799 147.675 72.8653 147.577 72.7051C147.479 72.545 147.448 72.3525 147.492 72.1698C147.536 71.9871 147.65 71.8294 147.811 71.7312C147.971 71.633 148.163 71.6024 148.346 71.646L149.152 71.8313C149.774 70.6895 150.274 69.4849 150.642 68.2377L146.412 65.6432L146.493 65.1678C146.762 63.665 146.762 62.1262 146.493 60.6234L146.412 60.1561L150.642 57.5615C150.275 56.3112 149.776 55.1038 149.152 53.9598L144.317 55.1121L144.043 54.7253C143.148 53.4858 142.06 52.3977 140.82 51.5023L140.434 51.2284L141.586 46.3939C140.442 45.7698 139.234 45.2701 137.984 44.9032L135.365 49.1737L134.898 49.0931C133.393 48.8513 131.859 48.8513 130.354 49.0931L129.878 49.1737L127.308 44.9193L126.824 45.0644C126.652 45.1211 126.465 45.1082 126.302 45.0283C126.14 44.9485 126.015 44.8082 125.954 44.6373C125.921 44.5491 125.906 44.455 125.909 44.3608C125.913 44.2665 125.935 44.1739 125.975 44.0883C126.015 44.0028 126.071 43.926 126.141 43.8626C126.211 43.7991 126.292 43.7502 126.381 43.7188C126.736 43.606 127.098 43.5012 127.453 43.4045L127.961 43.2676L130.62 47.6025C131.955 47.4039 133.313 47.4039 134.648 47.6025L137.299 43.2676L137.815 43.4045C139.534 43.8635 141.184 44.549 142.722 45.4431L143.181 45.709L141.997 50.6482C143.077 51.4711 144.042 52.4359 144.865 53.5167L149.804 52.3322L150.07 52.7915C150.966 54.3289 151.651 55.9792 152.109 57.6985L152.246 58.2142L147.911 60.8651C148.112 62.2005 148.112 63.5584 147.911 64.8938L152.246 67.5528L152.109 68.0604C151.651 69.7823 150.966 71.4353 150.07 72.9755L149.837 73.459ZM132.449 69.8009C130.693 69.7313 129.028 69.0027 127.785 67.7602C126.543 66.5178 125.814 64.8527 125.745 63.097C125.697 61.3702 126.297 59.6879 127.428 58.3815C128.558 57.0752 130.136 56.2394 131.852 56.0387C131.953 56.0261 132.055 56.0351 132.152 56.065C132.249 56.0948 132.339 56.1449 132.415 56.2119C132.491 56.279 132.552 56.3614 132.594 56.4537C132.636 56.5461 132.658 56.6463 132.658 56.7477C132.657 56.9191 132.594 57.0842 132.479 57.2119C132.365 57.3396 132.208 57.421 132.038 57.4407C130.844 57.5768 129.727 58.1012 128.86 58.9333C127.993 59.7653 127.423 60.859 127.238 62.0464C127.053 63.2337 127.262 64.4491 127.835 65.5058C128.407 66.5625 129.31 67.4021 130.406 67.8956C131.502 68.3891 132.729 68.5093 133.9 68.2376C135.07 67.9659 136.12 67.3175 136.886 66.3918C137.652 65.4662 138.094 64.3145 138.142 63.1137C138.191 61.913 137.843 60.7295 137.154 59.7451C137.055 59.6056 137.011 59.4339 137.032 59.2639C137.053 59.0939 137.137 58.9378 137.267 58.8266C137.342 58.7598 137.431 58.7097 137.527 58.6798C137.623 58.6498 137.724 58.6407 137.824 58.6529C137.924 58.665 138.02 58.6983 138.106 58.7505C138.192 58.8027 138.266 58.8726 138.322 58.9555C139.055 60.0041 139.482 61.2359 139.555 62.5132C139.628 63.7904 139.345 65.0629 138.736 66.1882C138.127 67.3135 137.218 68.2474 136.109 68.8853C135 69.5233 133.735 69.8403 132.457 69.8009H132.449Z" fill="#D1D5DB"/>
<path d="M87.2704 141.504L85.5542 138.708C84.6861 138.837 83.8036 138.837 82.9355 138.708L81.2193 141.504L80.8889 141.416C79.7766 141.122 78.7088 140.681 77.7143 140.102L77.4242 139.933L78.1494 136.887C78.1781 136.77 78.2516 136.669 78.3541 136.606C78.4566 136.543 78.5798 136.522 78.6973 136.549C78.7561 136.563 78.8115 136.589 78.8603 136.624C78.9092 136.66 78.9505 136.705 78.982 136.757C79.0134 136.808 79.0343 136.866 79.0436 136.926C79.0528 136.985 79.0501 137.046 79.0357 137.105L78.4717 139.474C79.2109 139.879 79.9916 140.203 80.8003 140.441L82.4762 137.709L82.7744 137.758C83.7481 137.919 84.7416 137.919 85.7153 137.758L86.0135 137.709L87.6975 140.441C88.5018 140.198 89.2793 139.874 90.018 139.474L89.2768 136.364L89.5265 136.178C90.2039 135.692 90.8112 135.114 91.3314 134.462C91.4022 134.366 91.508 134.302 91.6257 134.284C91.7435 134.266 91.8636 134.295 91.9599 134.365C92.0094 134.401 92.0514 134.445 92.0834 134.497C92.1155 134.549 92.1371 134.606 92.1468 134.666C92.1565 134.726 92.1543 134.787 92.1402 134.846C92.1261 134.905 92.1004 134.961 92.0646 135.01C91.5513 135.656 90.9615 136.238 90.3081 136.742L91.1139 139.965L90.8157 140.135C89.8219 140.714 88.7539 141.156 87.6411 141.448L87.2704 141.504ZM76.7474 135.389L76.3284 134.881L73.1054 135.639L72.9362 135.348C72.3685 134.35 71.9376 133.279 71.655 132.166L71.5664 131.835L74.3624 130.119C74.2334 129.251 74.2334 128.369 74.3624 127.5L71.5664 125.784L71.655 125.454C71.9471 124.341 72.3889 123.273 72.9684 122.279L73.1376 121.981L76.3606 122.787C76.8789 122.081 77.4824 121.443 78.1574 120.885L77.5853 118.468C77.571 118.41 77.5684 118.349 77.5777 118.29C77.5871 118.231 77.6081 118.174 77.6396 118.123C77.6711 118.072 77.7125 118.028 77.7612 117.993C77.81 117.958 77.8653 117.933 77.9238 117.92C78.0412 117.893 78.1645 117.914 78.267 117.977C78.3695 118.041 78.443 118.142 78.4717 118.259L79.1968 121.264L78.939 121.449C78.1405 122.022 77.441 122.722 76.8682 123.52L76.6829 123.77L73.5727 123.029C73.1726 123.767 72.8486 124.545 72.6058 125.349L75.3373 127.025L75.289 127.331C75.2059 127.816 75.1628 128.306 75.16 128.798C75.1627 129.292 75.2058 129.785 75.289 130.272L75.3373 130.57L72.6058 132.246C72.8471 133.054 73.1711 133.834 73.5727 134.575L76.6829 133.826L76.8682 134.075C77.0347 134.314 77.215 134.543 77.4081 134.76C77.4874 134.844 77.5316 134.955 77.5316 135.07C77.5316 135.186 77.4874 135.297 77.4081 135.381C77.3664 135.427 77.3157 135.463 77.2592 135.489C77.2026 135.514 77.1415 135.528 77.0795 135.529C77.0175 135.529 76.956 135.517 76.8989 135.493C76.8417 135.469 76.7901 135.434 76.7474 135.389ZM95.3521 135.639L94.1757 135.365C94.1169 135.35 94.0615 135.325 94.0126 135.289C93.9638 135.253 93.9225 135.209 93.891 135.157C93.8596 135.105 93.8386 135.048 93.8294 134.988C93.8202 134.928 93.8229 134.867 93.8373 134.809C93.8505 134.75 93.8753 134.695 93.9102 134.646C93.945 134.597 93.9892 134.556 94.0402 134.524C94.0913 134.493 94.148 134.472 94.2073 134.463C94.2665 134.453 94.327 134.456 94.3852 134.47L94.8928 134.591C95.2978 133.852 95.622 133.071 95.8597 132.262L93.1282 130.586L93.1766 130.288C93.2597 129.801 93.3028 129.308 93.3055 128.814C93.3028 128.322 93.2597 127.832 93.1766 127.347L93.1282 127.041L95.8597 125.365C95.6204 124.56 95.2963 123.782 94.8928 123.045L91.7826 123.786L91.5973 123.536C91.0245 122.738 90.325 122.038 89.5265 121.465L89.2768 121.28L90.018 118.17C89.2809 117.766 88.503 117.442 87.6975 117.203L86.0135 119.935L85.7153 119.886C84.7416 119.725 83.7481 119.725 82.7744 119.886L82.4762 119.935L80.8003 117.203L80.486 117.3C80.3738 117.336 80.252 117.326 80.1466 117.274C80.0412 117.221 79.9606 117.129 79.922 117.018C79.9003 116.961 79.8902 116.901 79.8923 116.84C79.8944 116.78 79.9087 116.72 79.9342 116.666C79.9598 116.611 79.9961 116.561 80.0411 116.521C80.0861 116.48 80.1387 116.449 80.196 116.43L80.8889 116.22L81.2193 116.139L82.9355 118.935C83.8036 118.806 84.6861 118.806 85.5542 118.935L87.2704 116.139L87.6008 116.22C88.7127 116.518 89.7802 116.963 90.7754 117.541L91.0736 117.711L90.2678 120.934C90.9616 121.47 91.5844 122.093 92.121 122.787L95.344 121.981L95.5132 122.279C96.0927 123.273 96.5346 124.341 96.8266 125.454L96.9152 125.784L94.1193 127.5C94.2483 128.369 94.2483 129.251 94.1193 130.119L96.9152 131.835L96.8266 132.166C96.5332 133.278 96.0914 134.346 95.5132 135.34L95.3521 135.639ZM84.12 133.278C83.0251 133.203 81.9963 132.727 81.23 131.941C80.4637 131.156 80.0137 130.115 79.9658 129.019C79.918 127.923 80.2757 126.847 80.9706 125.998C81.6656 125.148 82.6491 124.585 83.7332 124.414C83.7978 124.408 83.8632 124.415 83.925 124.435C83.9869 124.454 84.0439 124.487 84.0924 124.53C84.1409 124.574 84.1799 124.626 84.2069 124.686C84.2338 124.745 84.2481 124.809 84.2489 124.874C84.2495 124.985 84.2087 125.094 84.1343 125.177C84.0598 125.26 83.9571 125.313 83.846 125.325C83.1664 125.403 82.5238 125.675 81.9956 126.11C81.4675 126.545 81.0764 127.123 80.8696 127.775C80.6627 128.427 80.6489 129.125 80.8298 129.785C81.0107 130.445 81.3786 131.038 81.8892 131.493C82.3997 131.949 83.031 132.246 83.7071 132.351C84.3831 132.455 85.0749 132.362 85.6991 132.082C86.3233 131.803 86.8533 131.348 87.225 130.774C87.5967 130.2 87.7944 129.53 87.7942 128.846C87.7957 128.119 87.5704 127.409 87.1496 126.816C87.0881 126.724 87.0615 126.613 87.0749 126.504C87.0882 126.395 87.1404 126.293 87.2221 126.219C87.2706 126.176 87.3279 126.143 87.3901 126.123C87.4523 126.103 87.518 126.097 87.5828 126.105C87.6476 126.112 87.71 126.134 87.7659 126.167C87.8218 126.201 87.8699 126.246 87.907 126.3C88.3782 126.978 88.6522 127.773 88.6985 128.598C88.7448 129.422 88.5615 130.243 88.1691 130.969C87.7766 131.696 87.1904 132.299 86.4756 132.712C85.7607 133.126 84.9453 133.332 84.12 133.31V133.278Z" fill="#E6E6E6"/>
<path d="M201.438 300.575C287.719 300.575 357.664 296.492 357.664 291.454C357.664 286.417 287.719 282.333 201.438 282.333C115.156 282.333 45.2109 286.417 45.2109 291.454C45.2109 296.492 115.156 300.575 201.438 300.575Z" fill="#F5F5F5"/>
<path d="M292.849 74.0149H266.614L248.082 286.128H274.317C277.999 286.057 281.528 284.641 284.239 282.148C286.949 279.654 288.653 276.255 289.03 272.592L305.218 87.5434C305.406 85.8193 305.224 84.0749 304.685 82.4263C304.146 80.7778 303.262 79.2631 302.092 77.9831C300.922 76.703 299.492 75.687 297.898 75.0028C296.305 74.3186 294.583 73.9818 292.849 74.0149Z" fill="#AA916A"/>
<path d="M287.499 74.0152H198.706C195.023 74.0842 191.493 75.498 188.782 77.9901C186.07 80.4822 184.364 83.8803 183.985 87.5437L167.797 272.592C167.611 274.315 167.793 276.058 168.331 277.705C168.87 279.352 169.752 280.866 170.92 282.146C172.088 283.426 173.515 284.443 175.106 285.13C176.697 285.816 178.416 286.157 180.149 286.128H268.935C272.612 286.05 276.134 284.631 278.839 282.138C281.544 279.645 283.245 276.251 283.623 272.592L299.811 87.5437C299.998 85.8244 299.818 84.0848 299.283 82.4403C298.747 80.7958 297.868 79.2839 296.704 78.0048C295.54 76.7257 294.117 75.7085 292.53 75.0207C290.943 74.3329 289.228 73.9902 287.499 74.0152Z" fill="#AA916A"/>
<path opacity="0.3" d="M287.499 74.0152H198.706C195.023 74.0842 191.493 75.498 188.782 77.9901C186.07 80.4822 184.364 83.8803 183.985 87.5437L167.797 272.592C167.611 274.315 167.793 276.058 168.331 277.705C168.87 279.352 169.752 280.866 170.92 282.146C172.088 283.426 173.515 284.443 175.106 285.13C176.697 285.816 178.416 286.157 180.149 286.128H268.935C272.612 286.05 276.134 284.631 278.839 282.138C281.544 279.645 283.245 276.251 283.623 272.592L299.811 87.5437C299.998 85.8244 299.818 84.0848 299.283 82.4403C298.747 80.7958 297.868 79.2839 296.704 78.0048C295.54 76.7257 294.117 75.7085 292.53 75.0207C290.943 74.3329 289.228 73.9902 287.499 74.0152Z" fill="white"/>
<path opacity="0.4" d="M287.121 78.3498H263.706C263.008 78.3555 262.327 78.5705 261.753 78.967C261.178 79.3634 260.736 79.9231 260.483 80.5737C259.559 82.9634 257.945 85.0238 255.845 86.492C253.745 87.9601 251.256 88.7694 248.695 88.8165H234.884C232.472 88.8651 230.118 88.071 228.228 86.5708C226.338 85.0707 225.03 82.9584 224.53 80.5979C224.397 79.9592 224.044 79.3873 223.534 78.9811C223.023 78.575 222.387 78.3602 221.734 78.374H198.327C195.825 78.4183 193.425 79.3783 191.582 81.0724C189.74 82.7666 188.582 85.0774 188.328 87.5676L172.132 272.616C172.003 273.787 172.124 274.973 172.489 276.094C172.854 277.215 173.454 278.245 174.248 279.116C175.043 279.987 176.014 280.678 177.097 281.144C178.18 281.61 179.35 281.839 180.528 281.817H269.322C271.825 281.771 274.225 280.809 276.067 279.114C277.91 277.418 279.067 275.107 279.321 272.616L295.509 87.5676C295.641 86.3953 295.521 85.2084 295.158 84.0861C294.794 82.9638 294.196 81.932 293.402 81.0595C292.608 80.187 291.637 79.494 290.554 79.0267C289.471 78.5594 288.3 78.3287 287.121 78.3498Z" fill="white"/>
<path d="M264.994 178.899H202.855C202.428 178.906 202.004 178.822 201.612 178.653C201.22 178.484 200.868 178.233 200.58 177.918C200.292 177.603 200.074 177.229 199.942 176.824C199.809 176.418 199.764 175.988 199.809 175.563L200.124 172.002C200.216 171.099 200.636 170.261 201.304 169.646C201.972 169.032 202.842 168.683 203.749 168.666H265.897C266.324 168.659 266.748 168.743 267.14 168.912C267.532 169.081 267.884 169.332 268.172 169.647C268.46 169.963 268.677 170.336 268.81 170.742C268.943 171.148 268.988 171.577 268.943 172.002L268.636 175.563C268.542 176.468 268.119 177.308 267.448 177.922C266.777 178.537 265.904 178.884 264.994 178.899Z" fill="white"/>
<path d="M263.657 194.208H201.51C201.083 194.216 200.659 194.132 200.267 193.963C199.876 193.793 199.524 193.543 199.237 193.227C198.95 192.911 198.733 192.538 198.601 192.132C198.469 191.726 198.425 191.297 198.472 190.873L198.778 187.311C198.872 186.409 199.292 185.572 199.96 184.958C200.628 184.343 201.497 183.994 202.404 183.975H264.551C264.978 183.968 265.402 184.052 265.794 184.221C266.186 184.391 266.538 184.641 266.826 184.957C267.114 185.272 267.332 185.645 267.465 186.051C267.598 186.457 267.643 186.887 267.597 187.311L267.283 190.873C267.189 191.775 266.768 192.612 266.101 193.226C265.433 193.84 264.564 194.19 263.657 194.208Z" fill="white"/>
<path opacity="0.1" d="M246.116 81.8146C246.013 82.8173 245.546 83.7476 244.804 84.4293C244.061 85.1109 243.095 85.4965 242.087 85.513C241.613 85.5215 241.143 85.429 240.708 85.2417C240.273 85.0544 239.882 84.7766 239.563 84.4267C239.244 84.0768 239.002 83.6629 238.855 83.2125C238.708 82.7621 238.659 82.2855 238.711 81.8146C238.813 80.8118 239.28 79.8815 240.022 79.1999C240.765 78.5183 241.732 78.1327 242.739 78.1162C243.213 78.1077 243.683 78.2001 244.118 78.3874C244.554 78.5747 244.944 78.8526 245.263 79.2025C245.583 79.5524 245.824 79.9663 245.971 80.4167C246.118 80.8671 246.167 81.3436 246.116 81.8146Z" fill="black"/>
<path opacity="0.1" d="M244.44 81.8146C244.383 82.3619 244.128 82.8697 243.723 83.2422C243.318 83.6146 242.791 83.8262 242.241 83.837C241.982 83.842 241.724 83.7917 241.486 83.6894C241.248 83.5871 241.035 83.4351 240.86 83.2437C240.685 83.0522 240.554 82.8257 240.473 82.5793C240.393 82.3328 240.367 82.0721 240.395 81.8146C240.451 81.2665 240.705 80.7578 241.111 80.385C241.516 80.0122 242.044 79.8012 242.595 79.7921C242.854 79.7884 243.11 79.8396 243.348 79.9424C243.585 80.0451 243.798 80.1971 243.973 80.3882C244.147 80.5794 244.279 80.8054 244.36 81.0512C244.44 81.2971 244.468 81.5573 244.44 81.8146Z" fill="black"/>
<g opacity="0.8">
<path d="M276.187 87.9866C276.048 87.9885 275.91 87.9609 275.782 87.9056C275.654 87.8503 275.54 87.7685 275.446 87.6657C275.353 87.5629 275.282 87.4414 275.239 87.3092C275.195 87.177 275.181 87.0371 275.196 86.8988L275.373 84.9167C275.402 84.6238 275.539 84.352 275.755 84.1529C275.972 83.9538 276.255 83.8414 276.549 83.837C276.688 83.8352 276.825 83.8626 276.952 83.9174C277.079 83.9722 277.193 84.0533 277.286 84.1552C277.38 84.2571 277.451 84.3776 277.495 84.5088C277.538 84.64 277.554 84.779 277.54 84.9167L277.363 86.8988C277.334 87.1925 277.198 87.4653 276.981 87.6656C276.764 87.866 276.482 87.9802 276.187 87.9866Z" fill="white"/>
<path d="M284.857 87.9866C284.717 87.9885 284.58 87.9609 284.452 87.9056C284.324 87.8503 284.21 87.7685 284.116 87.6657C284.023 87.5629 283.952 87.4414 283.909 87.3092C283.865 87.177 283.851 87.0371 283.865 86.8988L284.276 82.2497C284.306 81.9568 284.442 81.685 284.659 81.4859C284.876 81.2868 285.158 81.1744 285.453 81.17C285.591 81.1682 285.728 81.1956 285.855 81.2504C285.982 81.3052 286.096 81.3863 286.19 81.4882C286.283 81.5901 286.354 81.7106 286.398 81.8418C286.442 81.973 286.457 82.112 286.444 82.2497L286.033 86.8988C286.003 87.1925 285.868 87.4653 285.651 87.6657C285.434 87.866 285.152 87.9802 284.857 87.9866Z" fill="white"/>
<path d="M280.522 87.9866C280.382 87.9885 280.245 87.9609 280.117 87.9056C279.989 87.8503 279.875 87.7685 279.781 87.6657C279.688 87.5629 279.617 87.4414 279.574 87.3092C279.53 87.177 279.516 87.0371 279.531 86.8988L279.821 83.5872C279.85 83.2922 279.987 83.0183 280.206 82.8178C280.424 82.6172 280.709 82.5039 281.005 82.4995C281.144 82.4974 281.281 82.5249 281.409 82.5803C281.536 82.6357 281.65 82.7176 281.743 82.8206C281.836 82.9236 281.906 83.0452 281.948 83.1774C281.991 83.3097 282.004 83.4494 281.988 83.5872L281.698 86.8988C281.669 87.1925 281.533 87.4653 281.316 87.6657C281.099 87.866 280.817 87.9802 280.522 87.9866Z" fill="white"/>
</g>
<g opacity="0.8">
<path d="M201.953 87.9866H196.506C196.428 87.9883 196.35 87.9732 196.278 87.9422C196.206 87.9112 196.141 87.8652 196.089 87.8071C196.036 87.7491 195.996 87.6804 195.972 87.6057C195.948 87.531 195.941 87.4521 195.95 87.3742L196.2 84.4494C196.218 84.2833 196.295 84.1294 196.418 84.0167C196.542 83.9039 196.702 83.84 196.869 83.837H202.316C202.394 83.8353 202.472 83.8505 202.544 83.8814C202.616 83.9124 202.68 83.9584 202.733 84.0165C202.786 84.0745 202.825 84.1432 202.849 84.2179C202.873 84.2926 202.881 84.3715 202.871 84.4494L202.614 87.3742C202.6 87.5403 202.524 87.6951 202.402 87.8084C202.28 87.9216 202.12 87.9852 201.953 87.9866Z" fill="white"/>
<path d="M204.475 87.1889C204.396 87.1905 204.318 87.1753 204.246 87.1444C204.174 87.1135 204.109 87.0676 204.055 87.0097C204.002 86.9518 203.961 86.8833 203.937 86.8086C203.912 86.7339 203.903 86.6548 203.911 86.5765L204.032 85.239C204.048 85.0723 204.125 84.9174 204.249 84.8043C204.372 84.6912 204.533 84.6279 204.701 84.6266C204.779 84.6249 204.857 84.6401 204.929 84.671C205.001 84.702 205.066 84.7481 205.118 84.8061C205.171 84.8642 205.211 84.9329 205.234 85.0075C205.258 85.0822 205.266 85.1611 205.257 85.239L205.144 86.5765C205.126 86.7426 205.048 86.8965 204.925 87.0093C204.802 87.122 204.642 87.1859 204.475 87.1889Z" fill="white"/>
</g>
<path d="M254.756 155.477C265.598 145.097 266.68 128.631 257.171 118.698C247.662 108.765 231.164 109.127 220.322 119.506C209.479 129.886 208.398 146.352 217.906 156.285C227.415 166.218 243.913 165.856 254.756 155.477Z" fill="white"/>
<path d="M237.631 136.501C230.799 136.501 225.021 139.103 224.53 144.752L223.982 151.028H248.743L249.29 144.752C249.782 139.103 244.472 136.501 237.631 136.501Z" fill="#AA916A"/>
<path d="M237.857 133.914C241.032 133.914 242.498 131.344 242.772 128.169C243.046 124.995 242.039 122.424 238.864 122.424C235.69 122.424 234.231 125.003 233.949 128.169C233.667 131.336 234.682 133.914 237.857 133.914Z" fill="#AA916A"/>
<path d="M262.158 173.565C260.474 173.565 259.048 174.21 258.935 175.604L258.798 177.159H264.914L265.051 175.604C265.164 174.21 263.85 173.565 262.158 173.565Z" fill="#AA916A"/>
<path d="M262.215 172.929C263.021 172.929 263.359 172.292 263.432 171.51C263.504 170.729 263.246 170.092 262.465 170.092C261.683 170.092 261.321 170.729 261.248 171.51C261.176 172.292 261.433 172.929 262.215 172.929Z" fill="#AA916A"/>
<path d="M243.336 209.518H219.164C218.508 209.53 217.858 209.402 217.256 209.143C216.654 208.884 216.113 208.499 215.671 208.015C215.229 207.531 214.895 206.958 214.692 206.335C214.488 205.712 214.42 205.053 214.491 204.401C214.634 203.016 215.279 201.73 216.305 200.788C217.331 199.845 218.666 199.311 220.058 199.285H244.231C244.886 199.274 245.536 199.403 246.137 199.662C246.739 199.922 247.278 200.306 247.72 200.79C248.162 201.274 248.496 201.846 248.7 202.468C248.904 203.091 248.974 203.75 248.904 204.401C248.762 205.787 248.118 207.074 247.092 208.016C246.066 208.959 244.73 209.493 243.336 209.518Z" fill="#AA916A"/>
<path d="M240.411 266.581H214.539C213.845 266.6 213.155 266.469 212.516 266.197C211.877 265.925 211.304 265.519 210.836 265.006C210.368 264.493 210.016 263.885 209.804 263.224C209.592 262.563 209.525 261.864 209.607 261.174L211.259 242.304C211.407 240.84 212.086 239.481 213.169 238.484C214.252 237.488 215.662 236.923 217.133 236.897H243.014C243.706 236.885 244.393 237.02 245.029 237.294C245.664 237.568 246.234 237.974 246.701 238.486C247.168 238.997 247.52 239.602 247.734 240.261C247.949 240.919 248.021 241.615 247.945 242.304L246.293 261.174C246.142 262.638 245.46 263.996 244.377 264.992C243.293 265.988 241.883 266.553 240.411 266.581Z" fill="#AA916A"/>
<g opacity="0.6">
<path d="M232.434 247.066C232.477 246.654 232.431 246.238 232.301 245.845C232.17 245.452 231.958 245.091 231.677 244.787C231.397 244.482 231.055 244.24 230.675 244.077C230.294 243.915 229.883 243.835 229.469 243.843C228.588 243.855 227.741 244.19 227.09 244.784C226.438 245.377 226.026 246.189 225.932 247.066C225.881 247.556 225.953 248.051 226.144 248.506C226.334 248.96 226.635 249.36 227.02 249.668L226.456 256.17C226.428 256.417 226.453 256.666 226.53 256.902C226.607 257.138 226.733 257.354 226.9 257.537C227.067 257.72 227.271 257.866 227.499 257.963C227.727 258.061 227.973 258.109 228.22 258.104C228.745 258.093 229.248 257.89 229.634 257.534C230.02 257.178 230.262 256.693 230.315 256.17L230.887 249.668C231.319 249.373 231.681 248.987 231.948 248.538C232.216 248.088 232.381 247.586 232.434 247.066Z" fill="white"/>
</g>
<path d="M243.239 240.829H239.903L240.709 231.49C240.85 230.194 240.713 228.883 240.308 227.644C239.904 226.405 239.24 225.265 238.361 224.302C237.483 223.339 236.409 222.574 235.212 222.057C234.015 221.541 232.722 221.284 231.419 221.306C228.648 221.36 225.993 222.425 223.954 224.301C221.915 226.177 220.632 228.734 220.348 231.49L219.542 240.829H216.206L217.012 231.49C217.387 227.833 219.088 224.439 221.794 221.949C224.501 219.46 228.024 218.047 231.701 217.978C233.431 217.948 235.148 218.287 236.737 218.972C238.326 219.657 239.751 220.672 240.918 221.95C242.085 223.228 242.966 224.74 243.504 226.385C244.042 228.03 244.223 229.77 244.037 231.49L243.239 240.829Z" fill="#AA916A"/>
<path d="M262.569 187.867L262.674 186.957C262.696 186.746 262.673 186.532 262.606 186.331C262.539 186.13 262.431 185.944 262.288 185.788C262.145 185.631 261.971 185.506 261.776 185.422C261.582 185.337 261.371 185.295 261.159 185.297C260.708 185.306 260.275 185.48 259.943 185.786C259.611 186.091 259.402 186.508 259.354 186.957L259.274 187.851C259.093 187.856 258.921 187.927 258.789 188.05C258.657 188.173 258.574 188.34 258.557 188.52L258.347 190.937C258.337 191.022 258.345 191.107 258.37 191.188C258.396 191.27 258.439 191.344 258.497 191.407C258.554 191.47 258.625 191.519 258.703 191.552C258.782 191.585 258.867 191.601 258.952 191.598H262.271C262.451 191.595 262.623 191.526 262.756 191.404C262.888 191.282 262.971 191.116 262.988 190.937L263.198 188.52C263.205 188.434 263.194 188.349 263.165 188.268C263.136 188.187 263.09 188.113 263.031 188.052C262.971 187.99 262.9 187.942 262.82 187.91C262.74 187.878 262.655 187.863 262.569 187.867ZM261.063 185.724C261.223 185.722 261.381 185.754 261.528 185.817C261.674 185.881 261.806 185.975 261.914 186.092C262.022 186.21 262.104 186.35 262.154 186.501C262.205 186.653 262.223 186.814 262.207 186.973L262.126 187.867H259.628L259.709 186.973C259.744 186.636 259.901 186.323 260.15 186.093C260.399 185.863 260.724 185.732 261.063 185.724Z" fill="#AA916A"/>
<path d="M212.597 188.826L211.437 188.584C211.405 188.578 211.374 188.564 211.348 188.544C211.322 188.524 211.301 188.498 211.286 188.468C211.271 188.439 211.263 188.406 211.263 188.373C211.263 188.341 211.27 188.308 211.284 188.278L211.767 187.134C211.787 187.085 211.789 187.03 211.773 186.979C211.756 186.928 211.722 186.885 211.677 186.857C211.631 186.829 211.578 186.818 211.525 186.826C211.472 186.834 211.424 186.86 211.389 186.9L210.51 187.803C210.489 187.83 210.462 187.851 210.432 187.866C210.401 187.881 210.367 187.889 210.333 187.889C210.299 187.889 210.265 187.881 210.235 187.866C210.204 187.851 210.177 187.83 210.156 187.803L209.439 186.9C209.286 186.707 208.955 186.9 209.012 187.134L209.294 188.278C209.302 188.312 209.303 188.346 209.297 188.38C209.291 188.414 209.279 188.446 209.26 188.475C209.241 188.504 209.216 188.528 209.187 188.547C209.159 188.566 209.126 188.579 209.092 188.584L207.892 188.826C207.634 188.874 207.602 189.237 207.851 189.285L209.012 189.527C209.044 189.533 209.075 189.547 209.101 189.567C209.127 189.587 209.148 189.613 209.162 189.643C209.176 189.673 209.183 189.706 209.182 189.739C209.181 189.772 209.172 189.804 209.157 189.833L208.689 190.985C208.669 191.035 208.667 191.09 208.684 191.14C208.7 191.191 208.734 191.234 208.78 191.262C208.825 191.29 208.879 191.301 208.932 191.294C208.985 191.286 209.033 191.259 209.068 191.219L209.946 190.317C209.969 190.292 209.996 190.273 210.027 190.259C210.057 190.246 210.09 190.239 210.124 190.239C210.157 190.239 210.19 190.246 210.22 190.259C210.251 190.273 210.278 190.292 210.301 190.317L211.018 191.219C211.171 191.412 211.501 191.219 211.437 190.985L211.155 189.841C211.143 189.773 211.158 189.703 211.197 189.646C211.237 189.588 211.296 189.549 211.364 189.535L212.565 189.293C212.815 189.237 212.847 188.874 212.597 188.826Z" fill="#263238"/>
<path d="M220.219 188.826L219.059 188.584C219.026 188.578 218.996 188.564 218.97 188.544C218.944 188.524 218.922 188.498 218.907 188.468C218.893 188.439 218.885 188.406 218.885 188.373C218.884 188.341 218.891 188.308 218.905 188.278L219.389 187.134C219.409 187.085 219.411 187.03 219.394 186.979C219.378 186.928 219.344 186.885 219.298 186.857C219.253 186.829 219.199 186.818 219.146 186.826C219.094 186.834 219.045 186.86 219.01 186.9L218.132 187.803C218.111 187.83 218.084 187.851 218.053 187.866C218.022 187.881 217.989 187.889 217.955 187.889C217.921 187.889 217.887 187.881 217.856 187.866C217.825 187.851 217.798 187.83 217.777 187.803L217.06 186.9C216.907 186.707 216.577 186.9 216.641 187.134L216.923 188.278C216.93 188.312 216.93 188.347 216.924 188.381C216.917 188.415 216.903 188.447 216.884 188.476C216.864 188.504 216.839 188.529 216.81 188.547C216.781 188.566 216.748 188.578 216.714 188.584L215.513 188.826C215.255 188.874 215.223 189.237 215.473 189.285L216.633 189.527C216.666 189.534 216.696 189.547 216.722 189.568C216.748 189.588 216.769 189.613 216.784 189.643C216.799 189.672 216.807 189.705 216.807 189.738C216.808 189.771 216.8 189.803 216.786 189.833L216.303 190.977C216.283 191.027 216.281 191.082 216.297 191.132C216.314 191.183 216.348 191.226 216.393 191.254C216.439 191.282 216.493 191.293 216.545 191.285C216.598 191.278 216.646 191.251 216.682 191.211L217.56 190.309C217.582 190.284 217.61 190.265 217.64 190.251C217.671 190.238 217.704 190.231 217.737 190.231C217.77 190.231 217.803 190.238 217.834 190.251C217.864 190.265 217.892 190.284 217.914 190.309L218.631 191.211C218.785 191.404 219.115 191.211 219.059 190.977L218.776 189.833C218.769 189.8 218.769 189.765 218.775 189.732C218.782 189.698 218.795 189.667 218.813 189.638C218.832 189.61 218.856 189.585 218.885 189.566C218.913 189.547 218.945 189.534 218.978 189.527L220.179 189.285C220.436 189.237 220.469 188.874 220.219 188.826Z" fill="#263238"/>
<path d="M227.842 188.826L226.689 188.584C226.656 188.579 226.625 188.566 226.598 188.547C226.57 188.527 226.549 188.501 226.533 188.471C226.518 188.441 226.511 188.408 226.511 188.374C226.512 188.341 226.52 188.308 226.536 188.278L227.02 187.134C227.051 187.083 227.06 187.021 227.046 186.963C227.031 186.905 226.994 186.855 226.943 186.824C226.892 186.793 226.83 186.783 226.772 186.798C226.714 186.812 226.664 186.849 226.633 186.9L225.763 187.803C225.741 187.83 225.713 187.851 225.682 187.866C225.65 187.881 225.616 187.889 225.581 187.889C225.547 187.889 225.512 187.881 225.481 187.866C225.45 187.851 225.422 187.83 225.4 187.803L224.683 186.9C224.53 186.707 224.2 186.9 224.264 187.134L224.546 188.278C224.553 188.311 224.554 188.346 224.547 188.379C224.541 188.413 224.528 188.445 224.509 188.473C224.491 188.502 224.466 188.526 224.438 188.545C224.41 188.564 224.378 188.578 224.345 188.584L223.144 188.826C222.886 188.874 222.854 189.237 223.104 189.285L224.256 189.527C224.288 189.534 224.319 189.547 224.345 189.568C224.371 189.588 224.392 189.613 224.407 189.643C224.422 189.672 224.43 189.705 224.43 189.738C224.43 189.771 224.423 189.803 224.409 189.833L223.926 190.977C223.895 191.029 223.885 191.09 223.9 191.148C223.914 191.206 223.951 191.257 224.002 191.288C224.053 191.319 224.115 191.328 224.173 191.314C224.231 191.299 224.281 191.262 224.312 191.211L225.183 190.309C225.205 190.284 225.233 190.265 225.263 190.251C225.294 190.238 225.327 190.231 225.36 190.231C225.393 190.231 225.426 190.238 225.457 190.251C225.487 190.265 225.515 190.284 225.537 190.309L226.262 191.211C226.415 191.404 226.746 191.211 226.681 190.977L226.399 189.833C226.387 189.766 226.401 189.697 226.439 189.64C226.476 189.583 226.534 189.542 226.601 189.527L227.801 189.285C228.027 189.237 228.091 188.874 227.842 188.826Z" fill="#263238"/>
<path d="M235.472 188.826L234.311 188.584C234.279 188.578 234.249 188.564 234.223 188.544C234.196 188.524 234.175 188.498 234.16 188.468C234.146 188.439 234.138 188.406 234.138 188.373C234.137 188.341 234.144 188.308 234.158 188.278L234.642 187.134C234.662 187.085 234.664 187.03 234.647 186.979C234.631 186.928 234.597 186.885 234.551 186.857C234.506 186.829 234.452 186.818 234.399 186.826C234.347 186.834 234.298 186.86 234.263 186.9L233.385 187.803C233.364 187.83 233.337 187.851 233.306 187.866C233.275 187.881 233.242 187.889 233.208 187.889C233.173 187.889 233.14 187.881 233.109 187.866C233.078 187.851 233.051 187.83 233.03 187.803L232.313 186.9C232.16 186.707 231.83 186.9 231.886 187.134L232.168 188.278C232.176 188.312 232.178 188.346 232.172 188.38C232.166 188.414 232.153 188.446 232.134 188.475C232.115 188.504 232.091 188.528 232.062 188.547C232.033 188.566 232.001 188.579 231.967 188.584L230.766 188.826C230.508 188.874 230.476 189.237 230.766 189.285L231.926 189.527C231.959 189.533 231.989 189.547 232.016 189.567C232.042 189.587 232.063 189.613 232.077 189.643C232.091 189.673 232.098 189.706 232.097 189.739C232.096 189.772 232.087 189.804 232.071 189.833L231.596 190.977C231.576 191.027 231.574 191.082 231.591 191.132C231.607 191.183 231.641 191.226 231.687 191.254C231.732 191.282 231.786 191.293 231.839 191.285C231.891 191.278 231.94 191.251 231.975 191.211L232.853 190.309C232.876 190.284 232.903 190.265 232.934 190.251C232.964 190.238 232.997 190.231 233.03 190.231C233.064 190.231 233.097 190.238 233.127 190.251C233.158 190.265 233.185 190.284 233.208 190.309L233.925 191.211C234.078 191.404 234.408 191.211 234.344 190.977L234.062 189.833C234.05 189.765 234.065 189.695 234.104 189.638C234.143 189.58 234.203 189.541 234.271 189.527L235.472 189.285C235.689 189.237 235.722 188.874 235.472 188.826Z" fill="#263238"/>
<path d="M243.095 188.826L241.935 188.584C241.902 188.578 241.872 188.564 241.846 188.544C241.819 188.524 241.798 188.498 241.783 188.468C241.769 188.439 241.761 188.406 241.761 188.373C241.76 188.341 241.767 188.308 241.781 188.278L242.265 187.134C242.285 187.085 242.287 187.03 242.27 186.979C242.254 186.928 242.22 186.885 242.174 186.857C242.129 186.829 242.075 186.818 242.022 186.826C241.97 186.834 241.921 186.86 241.886 186.9L241.008 187.803C240.987 187.83 240.96 187.851 240.929 187.866C240.898 187.881 240.865 187.889 240.831 187.889C240.797 187.889 240.763 187.881 240.732 187.866C240.701 187.851 240.674 187.83 240.653 187.803L239.936 186.9C239.783 186.707 239.453 186.9 239.517 187.134L239.799 188.278C239.806 188.312 239.806 188.347 239.8 188.381C239.793 188.415 239.779 188.447 239.76 188.476C239.74 188.504 239.715 188.529 239.686 188.547C239.657 188.566 239.624 188.578 239.59 188.584L238.389 188.826C238.131 188.874 238.099 189.237 238.349 189.285L239.509 189.527C239.542 189.534 239.572 189.547 239.598 189.568C239.624 189.588 239.645 189.613 239.66 189.643C239.675 189.672 239.683 189.705 239.683 189.738C239.684 189.771 239.676 189.803 239.662 189.833L239.179 190.977C239.159 191.027 239.157 191.082 239.173 191.132C239.19 191.183 239.224 191.226 239.269 191.254C239.315 191.282 239.369 191.293 239.421 191.285C239.474 191.278 239.522 191.251 239.558 191.211L240.436 190.309C240.458 190.284 240.486 190.265 240.516 190.251C240.547 190.238 240.58 190.231 240.613 190.231C240.646 190.231 240.679 190.238 240.71 190.251C240.74 190.265 240.768 190.284 240.79 190.309L241.507 191.211C241.661 191.404 241.991 191.211 241.935 190.977L241.652 189.833C241.645 189.8 241.645 189.765 241.651 189.732C241.658 189.698 241.671 189.667 241.689 189.638C241.708 189.61 241.732 189.585 241.761 189.566C241.789 189.547 241.821 189.534 241.854 189.527L243.054 189.285C243.337 189.237 243.337 188.874 243.095 188.826Z" fill="#263238"/>
<path d="M250.717 188.826L249.557 188.584C249.524 188.578 249.494 188.564 249.468 188.544C249.442 188.524 249.42 188.498 249.406 188.468C249.392 188.438 249.385 188.405 249.386 188.372C249.387 188.339 249.396 188.307 249.412 188.278L249.895 187.134C249.911 187.109 249.921 187.08 249.925 187.051C249.93 187.022 249.928 186.992 249.921 186.963C249.914 186.934 249.901 186.907 249.884 186.883C249.866 186.859 249.844 186.839 249.819 186.824C249.793 186.808 249.765 186.798 249.736 186.794C249.706 186.789 249.677 186.791 249.648 186.798C249.619 186.805 249.592 186.818 249.568 186.835C249.544 186.853 249.524 186.875 249.508 186.9L248.638 187.803C248.616 187.83 248.589 187.851 248.557 187.866C248.526 187.881 248.492 187.889 248.457 187.889C248.422 187.889 248.388 187.881 248.357 187.866C248.325 187.851 248.298 187.83 248.276 187.803L247.559 186.9C247.405 186.707 247.075 186.9 247.14 187.134L247.422 188.278C247.429 188.311 247.429 188.346 247.423 188.379C247.416 188.413 247.403 188.445 247.385 188.473C247.366 188.502 247.342 188.526 247.314 188.545C247.285 188.564 247.254 188.578 247.22 188.584L246.02 188.826C245.762 188.874 245.73 189.237 245.979 189.285L247.132 189.527C247.164 189.534 247.194 189.547 247.22 189.568C247.247 189.588 247.268 189.613 247.283 189.643C247.297 189.672 247.305 189.705 247.306 189.738C247.306 189.771 247.299 189.803 247.285 189.833L246.801 190.977C246.77 191.029 246.761 191.09 246.775 191.148C246.79 191.207 246.826 191.257 246.878 191.288C246.929 191.319 246.99 191.328 247.049 191.314C247.107 191.299 247.157 191.262 247.188 191.211L248.058 190.309C248.081 190.284 248.108 190.265 248.139 190.251C248.169 190.238 248.202 190.231 248.235 190.231C248.269 190.231 248.302 190.238 248.332 190.251C248.363 190.265 248.39 190.284 248.413 190.309L249.13 191.211C249.167 191.253 249.218 191.281 249.274 191.291C249.329 191.301 249.387 191.291 249.436 191.264C249.486 191.237 249.525 191.194 249.547 191.142C249.569 191.09 249.572 191.032 249.557 190.977L249.275 189.833C249.263 189.766 249.277 189.697 249.314 189.64C249.352 189.583 249.41 189.542 249.476 189.527L250.677 189.285C250.935 189.237 250.967 188.874 250.717 188.826Z" fill="#263238"/>
<path d="M232.338 172.139H218.028C217.589 172.146 217.167 172.315 216.844 172.611C216.52 172.908 216.316 173.314 216.271 173.75C216.248 173.956 216.269 174.164 216.333 174.361C216.397 174.558 216.503 174.738 216.643 174.891C216.782 175.044 216.953 175.165 217.143 175.246C217.333 175.327 217.539 175.367 217.746 175.362H232.056C232.495 175.354 232.916 175.186 233.24 174.889C233.563 174.593 233.767 174.187 233.812 173.75C233.834 173.545 233.812 173.337 233.747 173.141C233.683 172.945 233.577 172.765 233.438 172.613C233.299 172.46 233.128 172.339 232.939 172.258C232.749 172.176 232.544 172.136 232.338 172.139Z" fill="#263238"/>
<path d="M246.873 172.139H238.566C238.128 172.147 237.708 172.315 237.385 172.612C237.063 172.909 236.861 173.314 236.818 173.75C236.795 173.955 236.816 174.163 236.879 174.359C236.943 174.555 237.047 174.735 237.186 174.888C237.325 175.04 237.495 175.162 237.684 175.243C237.873 175.325 238.078 175.366 238.284 175.362H246.559C246.997 175.354 247.418 175.186 247.74 174.889C248.062 174.592 248.264 174.187 248.308 173.75C248.33 173.548 248.31 173.344 248.248 173.15C248.187 172.956 248.085 172.777 247.95 172.625C247.814 172.473 247.649 172.351 247.463 172.267C247.278 172.184 247.077 172.14 246.873 172.139Z" fill="#263238"/>
<path d="M257.84 245.18C252.782 247.107 248.216 250.134 244.473 254.043C242.2 252.279 239.49 251.164 236.633 250.82L236.254 250.764L236.093 252.665L236.302 252.746C239.436 253.9 242.086 256.081 243.82 258.934L244.094 259.385L244.392 258.902C247.729 253.575 252.438 249.244 258.025 246.365L258.211 246.268L258.315 245.011L257.84 245.18Z" fill="#263238"/>
<path opacity="0.2" d="M185.838 86.5362C184.811 88.3292 184.179 90.3209 183.985 92.3779L171.987 229.532H209.116L216.577 200.936L214.12 172.332L221.581 143.736L219.164 115.14L226.625 86.5362H185.838Z" fill="black"/>
<path d="M215.901 107.083L223.362 78.4788H129.468L122.015 107.083L124.464 135.679L117.011 164.275L119.46 192.879L112.007 221.475H205.893L213.354 192.879L210.897 164.275L218.358 135.679L215.901 107.083Z" fill="#AA916A"/>
<path opacity="0.7" d="M215.901 107.083L223.362 78.4788H129.468L122.015 107.083L124.464 135.679L117.011 164.275L119.46 192.879L112.007 221.475H205.893L213.354 192.879L210.897 164.275L218.358 135.679L215.901 107.083Z" fill="white"/>
<path opacity="0.5" d="M215.9 107.083H122.015L129.468 78.4788H223.362L215.9 107.083Z" fill="white"/>
<path opacity="0.5" d="M210.897 164.275H117.011L124.464 135.679H218.358L210.897 164.275Z" fill="white"/>
<path opacity="0.5" d="M205.893 221.475H111.999L119.46 192.879H213.354L205.893 221.475Z" fill="white"/>
<path opacity="0.2" d="M203.339 119.032C202.376 119.31 201.377 119.446 200.374 119.435C199.014 119.495 197.661 119.218 196.434 118.629C196.212 118.498 195.959 118.428 195.701 118.428C195.464 118.431 195.232 118.492 195.024 118.605H194.975C194.616 118.807 194.231 118.961 193.831 119.064C192.93 119.302 192 119.419 191.068 119.411C190.786 119.411 190.512 119.411 190.262 119.411C189.538 119.364 188.822 119.237 188.127 119.032C188.024 119.002 187.919 118.983 187.812 118.976C187.635 118.961 187.457 118.984 187.289 119.041C187.121 119.099 186.966 119.191 186.835 119.311C186.704 119.432 186.6 119.578 186.528 119.741C186.456 119.903 186.419 120.079 186.418 120.257V121.127H149.87C149.198 121.127 148.533 121.259 147.913 121.517C147.293 121.774 146.729 122.151 146.255 122.626C145.78 123.101 145.404 123.665 145.148 124.286C144.892 124.907 144.76 125.572 144.761 126.244V131.392C144.759 132.064 144.89 132.73 145.145 133.352C145.401 133.974 145.777 134.539 146.252 135.015C146.726 135.491 147.29 135.869 147.911 136.126C148.532 136.384 149.197 136.517 149.87 136.517H191.39H191.664C192.107 136.887 192.574 137.258 193.074 137.637C193.573 138.015 194.283 138.539 194.935 139.007C195.158 139.168 195.426 139.255 195.701 139.255C195.976 139.255 196.243 139.168 196.466 139.007C201.687 135.22 205.039 132.609 205.039 125.438V120.281C205.042 120.075 204.995 119.871 204.903 119.686C204.811 119.502 204.676 119.342 204.51 119.22C204.344 119.098 204.151 119.017 203.947 118.984C203.744 118.952 203.535 118.968 203.339 119.032Z" fill="black"/>
<path d="M190.592 118.299H149.08C146.254 118.299 143.963 120.59 143.963 123.415V128.564C143.963 131.39 146.254 133.681 149.08 133.681H190.592C193.418 133.681 195.709 131.39 195.709 128.564V123.415C195.709 120.59 193.418 118.299 190.592 118.299Z" fill="#AA916A"/>
<path d="M199.576 116.599C198.217 116.657 196.864 116.38 195.636 115.793C195.418 115.659 195.167 115.588 194.911 115.588C194.655 115.588 194.404 115.659 194.186 115.793C192.956 116.381 191.6 116.658 190.238 116.599C189.235 116.609 188.236 116.474 187.272 116.196C187.078 116.131 186.871 116.112 186.669 116.143C186.466 116.174 186.274 116.252 186.108 116.372C185.942 116.491 185.806 116.649 185.713 116.831C185.62 117.014 185.572 117.216 185.572 117.421V122.577C185.572 129.757 188.924 132.367 194.145 136.154C194.368 136.315 194.636 136.402 194.911 136.402C195.186 136.402 195.454 136.315 195.676 136.154C200.898 132.367 204.25 129.757 204.25 122.577V117.421C204.249 117.215 204.199 117.013 204.105 116.831C204.011 116.649 203.875 116.492 203.708 116.372C203.541 116.252 203.349 116.174 203.146 116.144C202.943 116.113 202.736 116.131 202.541 116.196C201.578 116.474 200.579 116.61 199.576 116.599Z" fill="#AA916A"/>
<path opacity="0.3" d="M199.576 116.599C198.217 116.657 196.864 116.38 195.636 115.793C195.418 115.659 195.167 115.588 194.911 115.588C194.655 115.588 194.404 115.659 194.186 115.793C192.956 116.381 191.6 116.658 190.238 116.599C189.235 116.609 188.236 116.474 187.272 116.196C187.078 116.131 186.871 116.112 186.669 116.143C186.466 116.174 186.274 116.252 186.108 116.372C185.942 116.491 185.806 116.649 185.713 116.831C185.62 117.014 185.572 117.216 185.572 117.421V122.577C185.572 129.757 188.924 132.367 194.145 136.154C194.368 136.315 194.636 136.402 194.911 136.402C195.186 136.402 195.454 136.315 195.676 136.154C200.898 132.367 204.25 129.757 204.25 122.577V117.421C204.249 117.215 204.199 117.013 204.105 116.831C204.011 116.649 203.875 116.492 203.708 116.372C203.541 116.252 203.349 116.174 203.146 116.144C202.943 116.113 202.736 116.131 202.541 116.196C201.578 116.474 200.579 116.61 199.576 116.599Z" fill="white"/>
<path opacity="0.2" d="M194.186 115.777C192.956 116.365 191.6 116.642 190.238 116.583C189.235 116.593 188.236 116.457 187.272 116.18C187.078 116.114 186.871 116.096 186.669 116.127C186.466 116.158 186.274 116.236 186.108 116.356C185.942 116.475 185.806 116.633 185.713 116.815C185.62 116.998 185.572 117.2 185.572 117.404V122.561C185.572 129.74 188.924 132.351 194.145 136.138C194.379 136.308 194.662 136.396 194.951 136.388V115.567C194.681 115.562 194.415 115.635 194.186 115.777Z" fill="white"/>
<path d="M202.396 121.175C199.255 122.406 196.458 124.377 194.242 126.92C192.696 125.781 190.885 125.057 188.98 124.817H188.73V126.05L188.867 126.098C190.986 126.863 192.812 128.272 194.089 130.127L194.29 130.417L194.459 130.103C196.312 126.661 199.133 123.837 202.573 121.981L202.694 121.925V121.119L202.396 121.175Z" fill="#263238"/>
<path d="M221.702 86.5282H218.14C217.682 86.5367 217.227 86.4474 216.806 86.2663C216.386 86.0852 216.008 85.8163 215.699 85.4778C215.39 85.1392 215.157 84.7387 215.016 84.3029C214.874 83.8671 214.827 83.4061 214.877 82.9507L215.191 79.3893C215.288 78.4207 215.737 77.5213 216.453 76.8618C217.169 76.2023 218.102 75.8287 219.075 75.8117H222.636C223.095 75.8021 223.551 75.8905 223.973 76.0711C224.395 76.2517 224.773 76.5204 225.083 76.8591C225.393 77.1978 225.626 77.5987 225.769 78.0351C225.911 78.4714 225.958 78.9331 225.908 79.3893L225.594 82.9507C225.485 83.916 225.032 84.8096 224.316 85.467C223.601 86.1244 222.673 86.5012 221.702 86.5282Z" fill="#AA916A"/>
<path d="M223.184 79.3812L222.411 78.5271L220.461 80.3158L218.833 78.5271L217.907 79.3812L219.542 81.17L217.601 82.9587L218.374 83.8047L220.316 82.016L221.952 83.8047L222.87 82.9587L221.235 81.17L223.184 79.3812Z" fill="white"/>
<path d="M142.11 117.251C144.173 119.499 146.139 121.828 148.097 124.173C150.055 126.517 151.948 128.911 153.834 131.312C153.914 131.416 153.882 131.376 153.898 131.408C153.914 131.441 153.898 131.449 153.898 131.457C153.912 131.487 153.931 131.514 153.955 131.537C154.023 131.635 154.111 131.718 154.212 131.782C154.312 131.845 154.425 131.888 154.543 131.908C154.634 131.92 154.726 131.92 154.817 131.908C154.865 131.912 154.913 131.912 154.962 131.908H155.034C155.075 131.908 155.034 131.908 155.163 131.86L157.178 130.764C159.885 129.33 162.616 127.928 165.436 126.671L167.797 129.595C165.525 131.682 163.156 134.301 160.763 136.219L158.958 137.637C158.846 137.728 158.728 137.812 158.604 137.887C158.467 137.984 158.324 138.073 158.177 138.152C157.885 138.32 157.584 138.471 157.274 138.604C156.65 138.866 155.995 139.047 155.324 139.144C153.969 139.343 152.585 139.204 151.296 138.741C150.64 138.508 150.017 138.191 149.442 137.798C149.152 137.605 148.878 137.379 148.637 137.161C148.5 137.049 148.387 136.92 148.258 136.799L147.936 136.477C145.8 134.285 143.697 132.077 141.635 129.829C139.572 127.581 137.533 125.317 135.583 122.964L142.11 117.251Z" fill="#B55B52"/>
<path d="M164.373 128.443L166.25 122.408L171.198 124.874C171.198 124.874 170.473 129.273 166.879 130.039L164.373 128.443Z" fill="#B55B52"/>
<path d="M168.224 120.74L172.688 121.965L171.189 124.874L166.242 122.408L168.224 120.74Z" fill="#B55B52"/>
<path d="M116.1 118.895C115.568 121.457 114.908 123.995 114.223 126.526C113.538 129.056 112.789 131.561 112.007 134.067L111.717 135.01L111.572 135.477C111.553 135.545 111.525 135.61 111.491 135.671C111.4 135.93 111.348 136.202 111.338 136.477C111.321 137.062 111.484 137.639 111.806 138.128C111.964 138.343 112.139 138.545 112.329 138.733L112.998 139.466L114.32 140.94C115.182 141.94 116.052 142.939 116.874 143.986L114.062 147.209C112.901 146.548 111.79 145.831 110.678 145.122L109.026 144.026L108.22 143.47C107.946 143.277 107.721 143.148 107.277 142.786C105.701 141.442 104.613 139.615 104.183 137.588C103.967 136.556 103.915 135.495 104.03 134.446C104.03 134.188 104.111 133.898 104.151 133.64L104.24 133.157L104.409 132.19C104.86 129.604 105.344 127.025 105.883 124.463C106.423 121.901 107.003 119.346 107.688 116.824L116.1 118.895Z" fill="#B55B52"/>
<path d="M114.118 143.728L117.437 142.028L118.904 147.668C118.904 147.668 116.237 148.692 114.174 147.378L114.118 143.728Z" fill="#B55B52"/>
<path d="M122.03 140.215L122.183 145.404L118.469 147.83L117.18 142.133L122.03 140.215Z" fill="#B55B52"/>
<path d="M132.9 92.2571C132.981 92.6519 133.263 92.9339 133.52 92.8855C133.778 92.8372 133.931 92.4666 133.851 92.0798C133.77 91.693 133.488 91.403 133.23 91.4513C132.972 91.4997 132.819 91.8784 132.9 92.2571Z" fill="#263238"/>
<path d="M133.223 92.9419C133.948 94.0657 134.824 95.085 135.825 95.9715C135.592 96.2227 135.307 96.4199 134.99 96.5493C134.672 96.6788 134.33 96.7373 133.988 96.7209L133.223 92.9419Z" fill="#A02724"/>
<path d="M130.991 90.3394C130.944 90.3388 130.899 90.3249 130.86 90.2993C130.822 90.2737 130.791 90.2375 130.772 90.195C130.754 90.1525 130.748 90.1056 130.755 90.0597C130.762 90.0139 130.783 89.9711 130.814 89.9365C131.066 89.6511 131.382 89.4293 131.736 89.2893C132.09 89.1493 132.473 89.0949 132.852 89.1308C132.883 89.1366 132.913 89.1485 132.94 89.1658C132.966 89.1831 132.989 89.2055 133.007 89.2317C133.025 89.2579 133.038 89.2874 133.044 89.3184C133.051 89.3495 133.051 89.3816 133.045 89.4128C133.041 89.4437 133.03 89.4733 133.013 89.4998C132.997 89.5264 132.975 89.5494 132.949 89.5674C132.924 89.5854 132.895 89.5981 132.864 89.6048C132.834 89.6115 132.802 89.6119 132.771 89.6061C132.471 89.5773 132.168 89.6208 131.888 89.7329C131.607 89.8451 131.358 90.0226 131.16 90.2507C131.117 90.3009 131.056 90.3326 130.991 90.3394Z" fill="#263238"/>
<path d="M121.281 97.8731C122.167 101.571 123.062 108.348 119.887 110.805C119.887 110.805 121.128 114.56 129.556 114.56C138.822 114.56 133.988 112.143 133.988 112.143C128.928 111.16 129.057 106.769 129.959 103.892L121.281 97.8731Z" fill="#B55B52"/>
<path d="M118.896 111.49C118.348 110.467 117.736 109.291 118.993 108.92C120.379 108.517 129.266 107.768 131.885 108.525C131.079 109.951 132.441 111.748 132.441 111.748L118.896 111.49Z" fill="#263238"/>
<path d="M126.261 284.388H132.07L132.65 272.688H126.833L126.261 284.388Z" fill="#B55B52"/>
<path d="M89.3657 282.776L95.2557 283.091L98.8333 271.56L92.9432 271.246L89.3657 282.776Z" fill="#B55B52"/>
<path d="M95.0777 282.623L89.5261 281.423C89.4289 281.4 89.327 281.412 89.2376 281.456C89.1481 281.5 89.0765 281.574 89.0346 281.664L87.1089 285.846C87.0615 285.948 87.038 286.059 87.0402 286.171C87.0424 286.283 87.0702 286.393 87.1216 286.492C87.1729 286.592 87.2464 286.679 87.3364 286.745C87.4264 286.812 87.5305 286.857 87.6407 286.878C89.5825 287.264 90.5494 287.353 92.9909 287.885C94.4896 288.207 97.8818 289.037 99.9525 289.496C102.023 289.955 102.74 287.957 101.935 287.587C98.3088 285.935 96.794 284.476 95.811 283.115C95.6345 282.867 95.3738 282.692 95.0777 282.623Z" fill="#263238"/>
<path d="M131.764 283.8H126.244C126.145 283.801 126.048 283.836 125.971 283.899C125.893 283.961 125.839 284.049 125.817 284.146L124.818 288.634C124.792 288.743 124.792 288.856 124.816 288.965C124.841 289.074 124.89 289.176 124.96 289.263C125.03 289.35 125.119 289.42 125.22 289.467C125.321 289.515 125.432 289.538 125.543 289.537C127.534 289.537 130.378 289.383 132.916 289.383C135.841 289.383 138.363 289.545 141.779 289.545C143.85 289.545 144.43 287.45 143.56 287.256C139.604 286.394 136.381 286.297 132.964 284.194C132.607 283.956 132.192 283.82 131.764 283.8Z" fill="#263238"/>
<path d="M109.356 112.514C104.973 114.6 103.78 127.251 103.78 127.251L114.634 132.262C116.468 129.168 117.468 125.65 117.534 122.054C117.752 115.519 113.844 110.411 109.356 112.514Z" fill="#263238"/>
<path opacity="0.4" d="M115.222 120.313C113.264 123.359 113.449 128.065 114.126 132.037L114.61 132.262C116.442 129.167 117.442 125.65 117.51 122.054C117.51 121.667 117.51 121.248 117.51 120.901L115.222 120.313Z" fill="black"/>
<path d="M139.644 112.207C139.644 112.207 145.026 118.283 139.942 155.879H112.925C112.74 151.729 115.343 131.497 111.314 111.95C114.3 111.375 117.32 110.993 120.354 110.805C124.181 110.588 128.018 110.588 131.844 110.805C134.476 111.072 137.084 111.541 139.644 112.207Z" fill="#AA916A"/>
<path opacity="0.6" d="M139.644 112.207C139.644 112.207 145.026 118.283 139.942 155.879H112.925C112.74 151.729 115.343 131.497 111.314 111.95C114.3 111.375 117.32 110.993 120.354 110.805C124.181 110.588 128.018 110.588 131.844 110.805C134.476 111.072 137.084 111.541 139.644 112.207Z" fill="#FAFAFA"/>
<path opacity="0.2" d="M142.005 123.697L141.908 123.609L136.534 120.74C135.986 129.015 139.684 134.204 141.884 136.468C142.16 132.217 142.2 127.953 142.005 123.697Z" fill="black"/>
<path opacity="0.2" d="M132.65 272.688L132.352 278.723H126.535L126.833 272.688H132.65Z" fill="black"/>
<path opacity="0.2" d="M92.9433 271.254L98.8333 271.56L96.9882 277.507L91.0981 277.192L92.9433 271.254Z" fill="black"/>
<path d="M119.412 94.1183C120.709 98.9528 121.225 101.862 124.246 103.876C128.742 106.906 134.334 103.425 134.512 98.2921C134.665 93.6752 132.521 86.5282 127.324 85.5532C126.177 85.3262 124.99 85.3972 123.878 85.7594C122.766 86.1216 121.765 86.7628 120.972 87.622C120.178 88.4812 119.618 89.5295 119.345 90.6668C119.072 91.8041 119.095 92.9925 119.412 94.1183Z" fill="#B55B52"/>
<path d="M130.362 155.879C130.362 155.879 124.625 194.482 121.499 208.954C118.034 224.827 99.5505 277.2 99.5505 277.2L90.502 275.243C90.502 275.243 102.097 232.538 105.005 210.396C106.133 201.75 107.495 187.835 109.219 176.208C110.887 164.928 112.942 155.887 112.942 155.887L130.362 155.879Z" fill="#263238"/>
<path d="M101.718 274.179L100.026 277.45L89.8574 275.243L90.7115 272.189L101.718 274.179Z" fill="#AA916A"/>
<path opacity="0.6" d="M101.718 274.179L100.026 277.45L89.8574 275.243L90.7115 272.189L101.718 274.179Z" fill="white"/>
<path opacity="0.6" d="M126.736 169.633C120.105 170.93 120.806 195.659 121.603 208.373C123.521 199.381 126.317 182.09 128.227 169.81C127.765 169.583 127.239 169.52 126.736 169.633Z" fill="black"/>
<path d="M139.942 155.879C139.942 155.879 142.641 193.652 142.093 209.058C141.521 225.085 133.923 277.547 133.923 277.547H125.366C125.366 277.547 125.052 225.979 124.673 210.275C124.254 193.113 122.183 155.871 122.183 155.871L139.942 155.879Z" fill="#263238"/>
<path d="M135.567 274.147C135.607 274.147 135.083 277.7 135.083 277.7H124.673L124.391 274.525L135.567 274.147Z" fill="#AA916A"/>
<path opacity="0.6" d="M135.567 274.147C135.607 274.147 135.083 277.7 135.083 277.7H124.673L124.391 274.525L135.567 274.147Z" fill="white"/>
<path d="M136.494 119.274C136.494 129.41 141.884 133.584 141.884 133.584L150.675 125.027C148.594 121.55 146.225 118.253 143.592 115.173C138.508 109.347 136.494 112.763 136.494 119.274Z" fill="#263238"/>
<path opacity="0.2" d="M134.174 100.129C133.994 100.637 133.694 101.094 133.298 101.459C132.902 101.824 132.422 102.087 131.901 102.224C131.328 102.341 130.808 102.639 130.418 103.074C130.028 103.51 129.788 104.059 129.734 104.641C130.777 104.293 131.723 103.702 132.495 102.918C133.266 102.134 133.842 101.178 134.174 100.129Z" fill="black"/>
<path d="M131.901 84.4896C133.706 82.2094 130.926 82.0724 130.926 82.0724C131.651 79.357 128.396 80.8154 128.396 80.8154C126.446 78.1242 125.342 81.4036 125.342 81.4036C123.32 79.1233 122.925 82.8459 122.925 82.8459C120.895 79.9533 119.863 84.127 119.863 84.127C117.994 81.1216 116.85 85.0295 116.85 85.0295C112.99 83.6517 114.819 87.6643 114.819 87.6643C111.532 87.7529 114.175 90.3071 114.175 90.3071C110.227 90.3071 113.707 92.5713 113.707 92.5713C110.573 94.6259 114.513 95.1819 114.513 95.1819C111.959 99.2107 116.35 97.6958 116.35 97.6958C114.57 101.66 118.51 99.9117 118.51 99.9117C118.26 103.731 120.46 102.691 121.523 101.982C121.725 102.788 122.111 103.594 122.82 103.658C124.198 103.844 124.432 101.241 124.432 101.241C124.432 101.241 125.705 102.24 126.777 101.7C127.848 101.161 127.445 99.7989 127.445 99.7989C127.678 99.9728 127.961 100.067 128.251 100.067C128.542 100.067 128.824 99.9728 129.057 99.7989C129.516 99.4443 129.516 96.882 128.936 95.9796L131.031 95.1739C131.031 95.1739 132.586 94.9563 131.893 92.9016C131.475 91.7208 131.438 90.4383 131.788 89.2355C134.157 88.1236 132.207 86.8182 132.207 86.8182C134.955 85.0537 131.901 84.4896 131.901 84.4896Z" fill="#263238"/>
<path d="M127.655 94.2956C127.983 95.4977 128.699 96.5574 129.693 97.3091C131.007 98.2921 131.99 97.3091 131.893 95.8346C131.812 94.497 131.023 92.3779 129.572 91.975C128.122 91.5722 127.308 92.8694 127.655 94.2956Z" fill="#B55B52"/>
<path d="M374.892 98.6014L321.592 125.347C319.658 126.189 318.014 127.58 316.862 129.346C315.71 131.113 315.101 133.179 315.11 135.288V160.226C315.049 182.91 321.654 205.113 334.105 224.075C343.715 238.708 356.454 257.407 377.638 268.095H387.196C410.796 260.9 428.401 241.732 439.158 225.326C451.614 206.366 458.226 184.163 458.171 161.477V135.288C458.168 133.17 457.544 131.099 456.376 129.332C455.209 127.566 453.549 126.18 451.601 125.347L390.794 99.4703C388.1 98.3234 377.673 97.4544 374.892 98.6014Z" fill="#9A4151"/>
<path d="M374.892 98.6014L321.592 125.347C319.658 126.189 318.014 127.58 316.862 129.346C315.71 131.113 315.101 133.179 315.11 135.288V160.226C315.049 182.91 321.654 205.113 334.105 224.075C343.715 238.708 356.454 257.407 377.638 268.095H387.196C410.796 260.9 428.401 241.732 439.158 225.326C451.614 206.366 458.226 184.163 458.171 161.477V135.288C458.168 133.17 457.544 131.099 456.376 129.332C455.209 127.566 453.549 126.18 451.601 125.347L390.794 99.4703C388.1 98.3234 377.673 97.4544 374.892 98.6014Z" fill="black"/>
<path d="M372.754 99.4703L312.016 125.347C310.069 126.18 308.409 127.566 307.241 129.332C306.073 131.099 305.45 133.17 305.447 135.288V160.226C305.448 183.322 312.3 205.898 325.134 225.099C337.969 244.3 356.21 259.263 377.551 268.095C401.133 260.9 418.738 241.732 429.513 225.326C441.969 206.366 448.58 184.163 448.525 161.477V135.288C448.524 133.172 447.902 131.103 446.738 129.336C445.574 127.569 443.917 126.183 441.973 125.347L381.148 99.4703C379.819 98.9125 378.392 98.6252 376.951 98.6252C375.51 98.6252 374.083 98.9125 372.754 99.4703Z" fill="#6B7280"/>
<path opacity="0.3" d="M391.399 212.583C411.9 204.631 422.073 181.566 414.121 161.065C406.169 140.564 383.104 130.391 362.603 138.343C342.103 146.295 331.93 169.36 339.881 189.861C347.833 210.362 370.898 220.535 391.399 212.583Z" fill="black"/>
<path d="M376.977 177.674C386.104 177.674 393.504 170.275 393.504 161.147C393.504 152.019 386.104 144.62 376.977 144.62C367.849 144.62 360.45 152.019 360.45 161.147C360.45 170.275 367.849 177.674 376.977 177.674Z" fill="white"/>
<path d="M346.811 201.413C349.469 195.853 353.663 191.169 358.899 187.917C364.134 184.665 370.191 182.98 376.354 183.061C382.674 183.062 388.876 184.768 394.308 187.997C399.739 191.227 404.2 195.862 407.219 201.413C407.219 201.413 397.469 215.838 375.937 215.316C370.357 215.294 364.851 214.035 359.815 211.631C354.778 209.228 350.337 205.738 346.811 201.413Z" fill="white"/>
<path d="M416.792 175.467C416.772 175.253 416.772 175.038 416.792 174.824C416.792 174.355 416.792 173.729 416.635 172.947C416.635 172.53 416.635 172.061 416.635 171.557C416.635 171.053 416.462 170.497 416.375 169.819C416.194 168.44 415.915 167.075 415.541 165.735C414.596 162.024 413.102 158.474 411.109 155.204C408.495 150.863 405.073 147.064 401.029 144.012C396.144 140.297 390.452 137.784 384.415 136.678C377.485 135.402 370.339 136.002 363.718 138.416C361.926 139.038 360.183 139.793 358.504 140.675C356.825 141.595 355.211 142.629 353.673 143.768C352.108 144.945 350.617 146.216 349.206 147.574C347.824 149.008 346.535 150.529 345.348 152.128C342.915 155.423 341.021 159.083 339.735 162.972C337.024 171.034 337.024 179.761 339.735 187.823C341.013 191.715 342.908 195.377 345.348 198.667C346.535 200.272 347.824 201.799 349.206 203.238C350.612 204.595 352.104 205.861 353.673 207.027C356.69 209.328 360.05 211.14 363.631 212.397C370.252 214.81 377.398 215.41 384.329 214.134C389.833 213.098 395.056 210.91 399.657 207.715C404.257 204.519 408.13 200.388 411.022 195.591C412.993 192.343 414.463 188.816 415.384 185.13C415.757 183.783 416.036 182.413 416.218 181.028C416.218 180.437 416.427 179.881 416.479 179.29C416.531 178.699 416.479 178.317 416.479 177.9L416.635 176.006C416.618 175.792 416.618 175.577 416.635 175.363C416.654 175.577 416.654 175.792 416.635 176.006C416.635 176.492 416.635 177.118 416.635 177.917C416.635 178.335 416.635 178.804 416.635 179.308C416.635 179.812 416.496 180.385 416.409 181.046C416.271 182.449 416.015 183.838 415.645 185.199C414.763 188.964 413.303 192.569 411.318 195.887C406.595 203.949 399.197 210.103 390.409 213.278C381.621 216.452 371.999 216.448 363.214 213.266C361.425 212.622 359.683 211.856 358 210.972C356.289 210.009 354.651 208.923 353.099 207.722C351.483 206.537 349.95 205.242 348.511 203.846C347.128 202.402 345.839 200.869 344.653 199.258C342.151 195.894 340.204 192.15 338.883 188.171C337.564 184.063 336.867 179.781 336.815 175.467C336.864 171.151 337.567 166.868 338.901 162.763C340.208 158.781 342.15 155.037 344.653 151.676C345.875 150.042 347.198 148.486 348.616 147.018C350.049 145.624 351.576 144.329 353.186 143.143C354.727 141.967 356.347 140.899 358.035 139.945C359.717 139.055 361.459 138.283 363.248 137.634C370.006 135.185 377.296 134.585 384.363 135.896C389.969 136.974 395.281 139.237 399.941 142.534C404.602 145.83 408.504 150.085 411.387 155.012C413.373 158.336 414.833 161.947 415.714 165.718C416.084 167.073 416.34 168.456 416.479 169.854C416.479 170.462 416.67 171.018 416.705 171.592V172.999C416.705 173.799 416.705 174.424 416.705 174.894C416.75 175.082 416.779 175.274 416.792 175.467Z" fill="#263238"/>
<path d="M448.317 154.717C448.399 155.1 448.439 155.49 448.439 155.881C448.439 156.715 448.439 157.81 448.578 159.183C448.717 160.556 448.717 162.364 448.578 164.397C448.578 165.422 448.578 166.5 448.578 167.664C448.578 168.828 448.578 170.045 448.352 171.314C448.109 173.868 447.935 176.684 447.396 179.673C447.171 181.167 446.979 182.714 446.667 184.295C446.354 185.877 445.971 187.493 445.624 189.161C443.953 196.345 441.626 203.361 438.672 210.12C435.62 216.844 431.974 223.283 427.776 229.358C425.76 232.087 423.901 234.728 421.885 237.005C420.911 238.152 420.008 239.316 419.052 240.341L416.289 243.261C414.551 245.19 412.813 246.737 411.318 248.11C410.068 249.339 408.751 250.5 407.373 251.585L404.801 253.671C404.519 253.924 404.21 254.145 403.88 254.331C404.127 254.04 404.401 253.772 404.697 253.532L407.148 251.325C408.242 250.386 409.546 249.222 410.971 247.849C412.396 246.476 414.134 244.86 415.819 242.931L418.531 239.976C419.469 238.951 420.268 237.787 421.311 236.64C423.275 234.363 425.1 231.722 427.098 228.976C431.223 222.925 434.817 216.529 437.838 209.859C440.775 203.13 443.102 196.15 444.79 189.005L445.867 184.174C446.18 182.61 446.388 181.063 446.649 179.586C447.205 176.631 447.414 173.833 447.692 171.296C447.848 170.027 447.953 168.811 447.987 167.664L448.144 164.414C448.3 162.381 448.265 160.626 448.265 159.201C448.265 157.776 448.265 156.75 448.265 155.899C448.253 155.504 448.27 155.109 448.317 154.717Z" fill="#263238"/>
</svg>
