<?xml version="1.0" encoding="UTF-8"?>
<svg version="1.1" xmlns="http://www.w3.org/2000/svg" width="600" height="1130" viewBox="0 0 600 1130" fill="none">
<path opacity="0.08" fill-rule="evenodd" clip-rule="evenodd" d="M0 0 C1.04800781 0.36222656 2.09601563 0.72445313 3.17578125 1.09765625 C15.0424629 5.63808568 25.3737378 12.81271514 35 21 C35.70898438 21.58652344 36.41796875 22.17304688 37.1484375 22.77734375 C41.92625389 26.81377484 46.05003587 31.15601107 50 36 C50.75023437 36.91265625 51.50046875 37.8253125 52.2734375 38.765625 C69.66664863 60.60315822 82.21517642 86.34889972 96.01831055 110.53662109 C100.49003943 118.3705944 104.98681957 126.18982249 109.5 134 C115.03230627 143.57380158 120.53030562 153.16669318 126.01025391 162.77050781 C130.8171789 171.19367294 135.64765707 179.60289286 140.5 188 C146.03230627 197.57380158 151.53030562 207.16669318 157.01025391 216.77050781 C162.42404139 226.25707687 167.87251761 235.7232219 173.33789062 245.18017578 C178.74322427 254.53962229 184.10755723 263.92215925 189.45898438 273.3125 C190.08095703 274.40304687 190.70292969 275.49359375 191.34375 276.6171875 C191.88193359 277.56190918 192.42011719 278.50663086 192.97460938 279.47998047 C195.94925121 284.67283521 198.98082433 289.83296895 202 295 C205.09033284 280.88039582 208.08635186 266.74994796 210.84737015 252.56238556 C211.25505375 250.47067499 211.66541101 248.37950746 212.07675171 246.28851318 C212.28141335 245.24804148 212.28141335 245.24804148 212.49020958 244.18655014 C212.76608074 242.78448815 213.04203201 241.38244192 213.31806374 239.98041153 C214.02023186 236.40801014 214.715342 232.8344482 215.39819336 229.25830078 C216.07650769 225.70849101 216.77265335 222.16259154 217.48087883 218.61863327 C217.86842345 216.65468584 218.23716032 214.68705647 218.60536194 212.71939087 C219.93146823 206.15573801 220.97225935 201.57765355 226 197 C228.54354977 195.72822512 230.47165152 195.76053941 233.3125 195.6875 C234.72982422 195.63142578 234.72982422 195.63142578 236.17578125 195.57421875 C240.07145314 196.16153305 241.3677389 197.0259913 244 200 C244.7850618 203.70372098 244.69121347 207.33852736 244.60449219 211.11108398 C244.58957104 212.221324 244.57464989 213.33156401 244.55927658 214.47544765 C244.20983271 226.99100312 241.87653177 239.0001747 239.328125 251.22265625 C238.8426838 253.63363006 238.35905825 256.04497007 237.87713623 258.45664978 C236.87306028 263.45545893 235.85322222 268.45067427 234.8203125 273.44360352 C233.50002227 279.82808387 232.21170446 286.21850091 230.93385696 292.61159611 C229.94118469 297.56780498 228.93641566 302.52149618 227.92751312 307.47442436 C227.44803282 309.83131116 226.97123195 312.18874479 226.49723053 314.54673958 C225.83428666 317.83062435 225.15619399 321.11101335 224.47363281 324.39086914 C224.28229767 325.35141205 224.09096252 326.31195496 223.89382935 327.30160522 C222.52058791 333.78867818 220.84193063 340.24418848 215.9375 345 C207.59825697 347.83889124 198.22802185 345.5629565 189.84667969 343.84448242 C188.68588898 343.61521561 187.52509827 343.38594879 186.32913208 343.1497345 C182.52455151 342.3953978 178.72323061 341.62587879 174.921875 340.85546875 C172.26427918 340.32285009 169.60614283 339.79294903 166.94805908 339.26277161 C161.39225465 338.15286332 155.83820457 337.0344998 150.28515625 335.91088867 C143.8803478 334.61502931 137.47303609 333.3321953 131.0642097 332.0563671 C124.87390748 330.82376962 118.68538821 329.58243882 112.49765778 328.33699989 C109.87477193 327.80920468 107.25127947 327.28478112 104.62740326 326.76189232 C100.96194574 326.03004112 97.29864036 325.28824141 93.63574219 324.54370117 C92.55610199 324.33006927 91.47646179 324.11643738 90.36410522 323.89633179 C77.26616981 321.20653377 77.26616981 321.20653377 72.625 316.6875 C70.02144644 312.38162295 69.78244299 309.37786105 70.5625 304.4375 C72.26953777 300.35545317 73.94330165 297.79167339 78 296 C88.83204556 294.36851017 100.23491491 297.73130529 110.7890625 299.90234375 C112.78475575 300.30444118 114.78063947 300.70559436 116.77670288 301.10585022 C120.935103 301.94209001 125.09190437 302.78571925 129.24755859 303.63549805 C134.58099572 304.72607478 139.91689393 305.8039567 145.25385475 306.87714291 C150.34975163 307.90229117 155.44448427 308.93316546 160.5390625 309.96484375 C161.9986331 310.25981404 161.9986331 310.25981404 163.48768997 310.56074333 C166.2263327 311.1153926 168.96412255 311.67405596 171.70166016 312.23413086 C172.92494522 312.48120789 172.92494522 312.48120789 174.17294312 312.73327637 C179.77014406 313.88507203 179.77014406 313.88507203 182 315 C174.52834241 301.54621141 166.97084637 288.15838802 159.18310547 274.88476562 C155.22335786 268.12567649 151.33864093 261.32852542 147.5 254.5 C143.07163993 246.62361926 138.56859983 238.79586683 134 231 C128.87825698 222.26024866 123.85622367 213.4703575 118.89233398 204.64013672 C115.01695257 197.76111502 111.05793087 190.93488878 107.0625 184.125 C102.19350577 175.82397515 97.43293263 167.46987028 92.75 159.0625 C88.57167028 151.56116117 84.34164757 144.10303037 79.95678711 136.72070312 C76.35454337 130.64069887 72.84414553 124.50923696 69.34350586 118.37036133 C68.31236977 116.56227164 67.28034098 114.75469438 66.24804688 112.94726562 C60.59995524 103.05683845 60.59995524 103.05683845 57.97509766 98.43847656 C39.78236945 66.43891116 22.23774069 36.4725127 -14.19140625 23.8984375 C-31.40830557 19.8370151 -48.39153348 23.5760962 -63.4609375 32.35546875 C-82.26772519 44.53648047 -94.51793851 61.86227858 -106.0043335 80.66075134 C-109.27414124 85.96332137 -112.79851303 91.0482932 -116.40625 96.125 C-124.06317236 106.98376837 -131.35960747 118.06453919 -138.625 129.1875 C-145.87961282 140.29265283 -153.1574766 151.35273941 -160.86198425 162.15231323 C-165.94002272 169.27988483 -170.71618969 176.59249706 -175.45898438 183.94726562 C-176.11060547 184.94048828 -176.76222656 185.93371094 -177.43359375 186.95703125 C-178.00134521 187.83335205 -178.56909668 188.70967285 -179.15405273 189.61254883 C-181.80687956 193.04357562 -184.3729848 195.65659796 -188.68359375 196.56640625 C-197.03476696 196.55456061 -197.03476696 196.55456061 -200.625 193.625 C-204.36028535 189.49652672 -204.54547224 186.54306212 -204.47021484 181.08203125 C-203.58785245 175.29857182 -200.18443254 171.14979806 -196.8125 166.5 C-196.02537894 165.37425216 -195.24113721 164.24648676 -194.45947266 163.11694336 C-192.68462611 160.55632904 -190.89762397 158.00472419 -189.10498047 155.45654297 C-183.55507419 147.53038954 -178.20266891 139.46763528 -172.80722046 131.43603516 C-170.30280748 127.71155398 -167.79084825 123.99219892 -165.27842712 120.27311707 C-159.82483928 112.20004793 -154.39340786 104.11340945 -149 96 C-147.10751581 93.1596595 -145.21385849 90.32010146 -143.3203125 87.48046875 C-142.29815819 85.94727822 -141.276023 84.41407495 -140.25390625 82.88085938 C-138.17578125 79.76367188 -136.09765625 76.64648437 -134.01953125 73.52929688 C-133.51041199 72.76555756 -133.00129272 72.00181824 -132.47674561 71.2149353 C-131.46106141 69.69153045 -130.44515391 68.16827445 -129.42901611 66.64517212 C-126.99914347 63.00244175 -124.57283882 59.3574551 -122.15527344 55.70654297 C-121.70546112 55.0284407 -121.2556488 54.35033844 -120.79220581 53.65168762 C-119.95669185 52.39182656 -119.12253138 51.13106628 -118.29006958 49.8691864 C-114.82439279 44.64837016 -111.0740778 39.75697085 -107 35 C-106.23042969 34.09636719 -105.46085937 33.19273438 -104.66796875 32.26171875 C-78.80548804 2.81514622 -38.37746213 -13.46965012 0 0 Z " fill="#2DBE60" transform="translate(429,4)"/>
<path opacity="0.08" fill-rule="evenodd" clip-rule="evenodd" d="M0 0 C4.89023703 6.11279629 7.47227913 13.91256418 10.32202148 21.13183594 C10.73397766 22.16711426 11.14593384 23.20239258 11.57037354 24.26904297 C12.92390319 27.672857 14.27248041 31.07861046 15.62109375 34.484375 C16.56713262 36.86571401 17.51351359 39.24691715 18.46022034 41.62799072 C20.69495396 47.25064813 22.9266909 52.87448513 25.15681845 58.49897027 C29.37895401 69.14698298 33.60834479 79.79211489 37.83754158 90.43732452 C39.21955116 93.91753479 40.59996382 97.3983749 41.98008728 100.8793335 C42.83622654 103.03642808 43.69239083 105.19351274 44.54858398 107.35058594 C44.92640518 108.30475403 45.30422638 109.25892212 45.6934967 110.24200439 C46.23784866 111.61249939 46.23784866 111.61249939 46.79319763 113.01068115 C47.14712019 113.90260918 47.50104275 114.7945372 47.86569023 115.71349335 C48.67566151 117.70324113 49.51219197 119.68226167 50.36619759 121.65351105 C50.81927221 122.70163719 51.27234684 123.74976334 51.739151 124.82965088 C52.15579545 125.77463566 52.5724399 126.71962044 53.00170994 127.69324112 C54.63896064 132.29648033 54.98811712 136.71380771 54 141.5 C52.30802863 144.66000535 50.25545582 146.87227209 47 148.5 C44.609375 148.7734375 44.609375 148.7734375 41.75 148.875 C40.81671875 148.92398438 39.8834375 148.97296875 38.921875 149.0234375 C34.95830175 148.31338561 32.61444937 146.44531427 30 143.5 C28.21282615 140.38454711 26.94649285 137.11782952 25.6628418 133.76855469 C25.27342911 132.79407379 24.88401642 131.8195929 24.48280334 130.81558228 C23.20528227 127.60721747 21.95233457 124.38984119 20.69921875 121.171875 C19.81496296 118.9387646 18.92910105 116.70628957 18.04170227 114.47442627 C15.7139438 108.60842541 13.40656963 102.73462055 11.1038208 96.85876465 C8.29543602 89.70304138 5.46448984 82.55622239 2.63551807 75.40861893 C0.43656763 69.8521321 -1.75847639 64.2942094 -3.94197083 58.73162842 C-4.34270813 57.71323883 -4.74344543 56.69484924 -5.15632629 55.64559937 C-5.90756876 53.73622415 -6.65682156 51.82606451 -7.40377808 49.91500854 C-7.73304794 49.07944427 -8.06231781 48.24388 -8.40156555 47.38299561 C-8.83095413 46.28796785 -8.83095413 46.28796785 -9.26901722 45.17081833 C-9.87954593 43.49898758 -9.87954593 43.49898758 -11 42.5 C-11.3810791 43.19222656 -11.7621582 43.88445312 -12.15478516 44.59765625 C-19.55117222 58.01590013 -27.03211875 71.36673254 -34.79736328 84.57617188 C-38.95669651 91.66772401 -43.00256043 98.81608255 -47 106 C-52.13625165 115.22934771 -57.40212624 124.37237125 -62.75 133.48046875 C-66.92243959 140.6052819 -70.98495244 147.78546141 -75 155 C-80.13631389 164.22931402 -85.40212535 173.37236973 -90.75 182.48046875 C-94.92243959 189.6052819 -98.98495244 196.78546141 -103 204 C-107.57572123 212.22199908 -112.23582369 220.38574214 -117 228.5 C-122.40862904 237.71433711 -127.68085973 246.99679118 -132.87524414 256.33349609 C-136.1627084 262.23859275 -139.49868535 268.11060428 -142.8918457 273.95556641 C-159.28618341 302.26952763 -170.06521446 331.656873 -162 364.5 C-155.96333021 384.62223263 -143.53054684 400.58971275 -125.04785156 410.55224609 C-107.42531271 419.38092049 -88.47040225 422.81565997 -68.84765625 422.77124023 C-67.61654617 422.77646698 -66.3854361 422.78169373 -65.11701965 422.78707886 C-62.47235405 422.79723855 -59.82794692 422.80402785 -57.18328857 422.80496025 C-52.99663208 422.80692475 -48.81013576 422.82510068 -44.62353516 422.84571838 C-34.23850927 422.89455988 -23.8534411 422.92583571 -13.46832275 422.94702148 C-5.36624711 422.96356239 2.73568738 422.98637258 10.83766842 423.03004223 C14.99578144 423.05174989 19.15362566 423.05988336 23.31179142 423.05764949 C26.50219014 423.0597111 29.69247184 423.08107113 32.8828125 423.09936523 C34.02679001 423.09478806 35.17076752 423.09021088 36.34941101 423.085495 C41.95703606 423.13669764 46.20285963 423.23965302 51 426.5 C54.46110135 430.30721148 54.45694497 434.2021264 54.28125 439.12890625 C53.90143151 442.33098709 53.17582683 444.10659048 51 446.5 C45.28816051 450.38191724 39.54635582 449.92350482 32.90209961 449.88818359 C31.68649857 449.89344055 30.47089752 449.89869751 29.21846008 449.90411377 C25.89086758 449.91504126 22.56383629 449.91249381 19.23627543 449.90297651 C15.73071629 449.89534105 12.22517992 449.90243863 8.71961975 449.90713501 C2.81751251 449.91259212 -3.08448215 449.90541349 -8.98657227 449.89111328 C-15.75510451 449.87490029 -22.52336399 449.87999189 -29.29188925 449.8965925 C-35.13859787 449.91034565 -40.98522573 449.9120572 -46.83194536 449.90427649 C-50.3073361 449.8996602 -53.78260027 449.89880166 -57.25798225 449.90888596 C-96.04092188 450.00582311 -133.44381176 444.37692515 -162.2890625 416.2734375 C-182.40498846 395.69374379 -192.2057846 369.12830935 -192.25366211 340.49755859 C-191.74234791 307.40873644 -177.76585609 278.39008722 -161.15917969 250.5222168 C-157.14815121 243.79116198 -153.25596514 236.99417811 -149.375 230.1875 C-149.03490906 229.59131866 -148.69481812 228.99513733 -148.34442139 228.38088989 C-146.5945591 225.31335899 -144.84539302 222.2454321 -143.09667969 219.17724609 C-140.06676611 213.86199922 -137.03021236 208.55054824 -133.99395752 203.23892212 C-132.32901398 200.32611439 -130.66453102 197.41304348 -129 194.5 C-128.33333552 193.33333208 -127.66666886 192.16666541 -127 191 C-126.67 190.4225 -126.34 189.845 -126 189.25 C-75 100 -75 100 -74.00009155 98.25016785 C-73.33311095 97.0829467 -72.66613911 95.91572054 -71.99917603 94.74848938 C-70.33738433 91.84026522 -68.67544266 88.93212697 -67.01318359 86.02416992 C-63.95489977 80.67365173 -60.89795832 75.32238251 -57.84625244 69.96810913 C-50.31805867 56.7599777 -42.75470586 43.57686767 -35 30.5 C-49.22673593 33.05796659 -63.41706806 35.75416837 -77.57851791 38.64973068 C-79.89619251 39.12302841 -82.21436827 39.59378532 -84.53274536 40.06362915 C-85.30491457 40.22013254 -86.07708378 40.37663593 -86.87265205 40.53788185 C-88.43910833 40.85529585 -90.00557946 41.1726366 -91.57206535 41.4899044 C-95.56485132 42.29969229 -99.55613101 43.11601087 -103.54516602 43.9440918 C-107.48961733 44.76245583 -111.43719169 45.56381019 -115.38739967 46.353899 C-116.869711 46.65354487 -118.35080525 46.95928539 -119.83051109 47.2715435 C-134.17448576 50.29288952 -134.17448576 50.29288952 -141 47.5 C-144.45800598 44.69037014 -145.68772451 43.22263448 -146.4765625 38.87109375 C-146.76862594 33.22197198 -146.3315912 30.27843027 -142.50115204 25.86666107 C-140.02106911 23.60877333 -137.50374453 23.13832714 -134.26269531 22.45019531 C-133.23403288 22.22252409 -133.23403288 22.22252409 -132.18458939 21.99025345 C-129.79427148 21.46916568 -127.39794001 20.98473928 -125 20.5 C-123.13362475 20.10531505 -121.26754979 19.70920815 -119.4017334 19.31188965 C-112.87456982 17.93462761 -106.33653576 16.61330992 -99.796875 15.296875 C-98.61294411 15.05782692 -97.42901321 14.81877884 -96.20920563 14.57248688 C-89.95865441 13.31047085 -83.70725796 12.05275007 -77.45507812 10.79882812 C-71.02895172 9.50919734 -64.6058107 8.20528408 -58.18323898 6.89808273 C-53.20890446 5.88827948 -48.23252181 4.88887204 -43.25553131 3.89225006 C-40.88665949 3.41606707 -38.51855168 2.93606572 -36.15126801 2.45204926 C-32.83829752 1.77571678 -29.52267771 1.11420806 -26.20605469 0.45605469 C-25.24575348 0.25662262 -24.28545227 0.05719055 -23.29605103 -0.14828491 C-6.75327065 -3.37663533 -6.75327065 -3.37663533 0 0 Z " fill="#2DBE60" transform="translate(196,276.5)"/>
<path opacity="0.08" fill-rule="evenodd" clip-rule="evenodd" d="M0 0 C3.17852316 1.64448689 5.37801764 3.75603527 7 7 C7.34375 9.3203125 7.34375 9.3203125 7.5 12.125 C7.60828125 13.49011719 7.60828125 13.49011719 7.71875 14.8828125 C1.63462285 41.26940744 -28.85229785 54.85229785 -48 74 C77.235 74.495 77.235 74.495 205 75 C205 83.25 205 91.5 205 100 C191.14129522 100.8966439 177.36095139 101.16823215 163.47607422 101.20532227 C161.1680281 101.21492473 158.85998365 101.2249361 156.55194092 101.23532104 C150.34247189 101.26211997 144.13299546 101.28326331 137.92350149 101.30332303 C131.41327188 101.32533876 124.90306444 101.35265047 118.39285278 101.37937927 C107.48407956 101.42346323 96.57529873 101.46433271 85.66650391 101.50268555 C74.43993236 101.54216456 63.21337092 101.5836196 51.98681641 101.62768555 C51.29258846 101.63040982 50.59836052 101.63313409 49.88309537 101.63594092 C46.39969399 101.64962243 42.91629276 101.6633423 39.43289161 101.67708123 C10.62194913 101.79066537 -18.18901608 101.89748758 -47 102 C-46.33823257 102.65954681 -45.67646515 103.31909363 -44.99464417 103.99862671 C-38.76741747 110.20560766 -32.54281321 116.41520771 -26.32078648 122.62740135 C-23.1216736 125.82128906 -19.92163442 129.01423719 -16.71948242 132.20507812 C-13.63098087 135.28273785 -10.54490746 138.36281293 -7.46052361 141.44459915 C-6.28160222 142.62166864 -5.10179908 143.79785564 -3.92111397 144.97315598 C-2.27134023 146.61570215 -0.62469062 148.26131917 1.02124023 149.90771484 C1.5132341 150.39611343 2.00522797 150.88451202 2.51213074 151.38771057 C6.21410119 155.10105747 7.18936431 157.02364144 7.375 162.25 C7.35444506 166.1657156 7.15450377 168.57471604 4.625 171.625 C1.20293346 174.72115544 -0.59547659 175.24765886 -5.125 175.5 C-6.03507812 175.5721875 -6.94515625 175.644375 -7.8828125 175.71875 C-15.24881488 174.02032339 -21.32084826 165.83760811 -26.57763672 160.61523438 C-27.287603 159.91344559 -27.99756927 159.2116568 -28.72904968 158.48860168 C-31.04891493 156.19330786 -33.36483682 153.89410055 -35.6796875 151.59375 C-36.47523167 150.80352951 -37.27077583 150.01330902 -38.0904274 149.19914246 C-42.29103014 145.02513288 -46.48804358 140.84754828 -50.68261719 136.66748047 C-54.14803864 133.21545132 -57.62060366 129.770857 -61.09960938 126.33251953 C-65.3150118 122.16637289 -69.51806482 117.98814279 -73.71246719 113.80085754 C-75.30862058 112.21141659 -76.90902554 110.62623318 -78.51375961 109.04545593 C-80.75398678 106.83681188 -82.97796271 104.61295156 -85.19873047 102.38476562 C-85.86157547 101.73832596 -86.52442047 101.09188629 -87.20735168 100.42585754 C-91.02170197 96.55909813 -93.29072813 93.57814931 -94 88 C-93.22191678 80.53640199 -89.80326267 76.96206591 -84.55273438 71.85571289 C-83.40131706 70.7005719 -83.40131706 70.7005719 -82.22663879 69.52209473 C-79.69645472 66.99099545 -77.14560565 64.48188914 -74.59375 61.97265625 C-72.8289641 60.21652757 -71.06543122 58.45913887 -69.30310059 56.70054626 C-65.14115317 52.55405093 -60.96574745 48.42150097 -56.78382063 44.29516453 C-52.49807493 40.06466044 -48.22886178 35.81773733 -43.96160126 31.56859684 C-39.44741793 27.07398375 -34.92775735 22.58490031 -30.40625 18.09765625 C-29.53985397 17.23768602 -28.67345795 16.3777158 -27.7808075 15.49168587 C-25.33921049 13.07099394 -22.8939745 10.65404913 -20.44726562 8.23852539 C-19.35470207 7.15470833 -19.35470207 7.15470833 -18.24006653 6.04899597 C-17.57548935 5.39446442 -16.91091217 4.73993286 -16.22619629 4.06556702 C-15.35899837 3.20867578 -15.35899837 3.20867578 -14.47428131 2.33447361 C-10.50662077 -1.25692937 -5.02659825 -0.65133386 0 0 Z " fill="#2DBE60" transform="translate(468,625)"/>
</svg>
