<svg width="480" height="450" viewBox="0 0 750 750" fill="none" xmlns="http://www.w3.org/2000/svg">
    <path fill-rule="evenodd" clip-rule="evenodd"
        d="M306.664 61.5998V0.333148H358.506V61.5998H391.495V0.333148H443.336V61.5998H466.9V150.409L529.153 87.0718L545.959 103.59L588.906 59.8971L625.878 96.2358L582.931 139.929L606.458 163.055L649.404 119.361L686.376 155.701L643.43 199.395L660.235 215.912L594.195 283.1H688.4V306.664H749.667V358.505H688.4V391.494H749.667V443.336H688.4V466.9H595.462L660.877 533.444L644.074 549.962L687.024 593.653L650.055 629.996L607.104 586.305L583.579 609.432L626.528 653.123L589.56 689.464L546.609 645.773L529.806 662.293L466.9 598.301V688.4H443.336V749.667H391.495V688.4H358.506V749.667H306.664V688.4H283.1V599.605L220.856 662.932L204.051 646.415L161.104 690.108L124.133 653.768L167.08 610.074L143.552 586.949L100.605 630.642L63.6348 594.304L106.581 550.609L89.7761 534.092L155.82 466.9H61.6002V443.336H0.333496V391.494H61.6002V358.505H0.333496V306.664H61.6002V283.1H157.044L90.3975 215.304L107.202 198.784L64.2522 155.093L101.22 118.752L144.171 162.442L167.696 139.316L124.747 95.6251L161.715 59.2825L204.666 102.973L221.469 86.4545L283.1 149.149V61.5998H306.664ZM375.625 243.27L344.367 211.472V206.1C355.05 204.055 366.078 202.982 377.356 202.982C386.984 202.982 396.429 203.764 405.633 205.264V212.741L375.625 243.27ZM473.043 231.558C453.057 218.416 430.208 209.272 405.633 205.264V122.865H344.367V206.1C320.727 210.627 298.783 219.927 279.576 232.957L220.728 173.094L177.038 216.044L235.672 275.69C221.215 295.801 210.935 319.117 206.1 344.367H122.865V405.633H205.264C209.44 431.238 219.191 454.969 233.232 475.54L176.416 533.345L220.109 576.292L276.096 519.332C296.115 533.636 319.287 543.81 344.367 548.613V627.135H405.633V549.448C431.673 545.202 455.776 535.188 476.587 520.761L530.547 575.652L574.237 532.703L520.06 477.59C534.864 456.552 545.134 432.093 549.448 405.633H627.135V344.367H548.614C543.615 318.265 532.798 294.231 517.563 273.665L573.594 216.66L529.9 173.713L473.043 231.558ZM473.043 231.558C490.248 242.873 505.33 257.151 517.563 273.665L508.288 283.1H466.9V237.809L473.043 231.558ZM548.614 344.367H533.976L504.494 374.361L535.235 405.633H549.448C550.95 396.429 551.73 386.984 551.73 377.356C551.73 366.077 550.659 355.049 548.614 344.367ZM520.06 477.59L509.549 466.9H466.9V510.906L476.587 520.761C493.492 509.041 508.224 494.409 520.06 477.59ZM405.633 549.448V535.979L375.635 505.461L344.367 537.273V548.613C355.05 550.658 366.078 551.729 377.356 551.729C386.984 551.729 396.429 550.949 405.633 549.448ZM276.096 519.332L283.1 512.205V466.9H241.726L233.232 475.54C244.834 492.537 259.364 507.377 276.096 519.332ZM205.264 405.633H216.039L246.767 374.371L217.272 344.367H206.1C204.055 355.049 202.983 366.077 202.983 377.356C202.983 386.984 203.764 396.429 205.264 405.633ZM235.672 275.69C247.671 258.997 262.548 244.511 279.576 232.957L283.1 236.544V283.1H242.956L235.672 275.69ZM389.096 344.367L405.633 361.189V387.541L387.851 405.633H363.411L344.367 386.261V362.473L362.164 344.367H389.096Z"
        fill="#17191C" />
</svg>