<svg xmlns="http://www.w3.org/2000/svg" width="328" height="1130" viewBox="0 0 328 1130" fill="none">
    <path opacity="0.08" fill-rule="evenodd" clip-rule="evenodd"
        d="M461.95 92.3901V0H540.126V92.3901H589.874V0H668.05V92.3901H703.583V226.316L797.464 130.801L822.805 155.711L887.572 89.8235L943.326 144.622L878.559 210.514L914.037 245.384L978.804 179.496L1034.56 234.294L969.792 300.187L995.137 325.097L895.546 426.417H1037.61V461.95H1130V540.126H1037.61V589.874H1130V668.05H1037.61V703.583H897.458L996.106 803.933L970.766 828.844L1035.53 894.731L979.783 949.534L915.016 883.651L879.538 918.525L944.305 984.408L888.555 1039.22L823.788 973.328L798.448 998.238L703.583 901.74V1037.61H668.05V1130H589.874V1037.61H540.126V1130H461.95V1037.61H426.417V903.707L332.549 999.204L307.209 974.293L242.442 1040.19L186.693 985.383L251.455 919.495L215.976 884.621L151.21 950.513L95.4598 895.71L160.222 829.823L134.882 804.912L234.473 703.583H92.3901V668.05H0V589.874H92.3901V540.126H0V461.95H92.3901V426.417H236.321L135.815 324.177L161.155 299.267L96.3885 233.379L152.138 178.577L216.905 244.46L252.383 209.585L187.617 143.702L243.366 88.895L308.133 154.783L333.474 129.872L426.417 224.417V92.3901H461.95ZM565.942 366.349L518.807 318.399V310.297C534.916 307.214 551.545 305.599 568.555 305.599C583.071 305.599 597.317 306.775 611.193 309.039V320.312L565.942 366.349ZM712.852 348.69C682.712 328.871 648.254 315.083 611.193 309.039V184.78H518.807V310.297C483.155 317.123 450.065 331.15 421.101 350.799L332.357 260.527L266.47 325.294L354.893 415.241C333.089 445.568 317.589 480.73 310.297 518.807H184.78V611.193H309.039C315.334 649.809 330.038 685.594 351.215 716.617L265.532 803.787L331.424 868.549L415.854 782.655C446.039 804.221 480.982 819.57 518.807 826.812V945.22H611.193V828.07C650.464 821.665 686.811 806.564 718.195 784.81L799.564 867.584L865.452 802.817L783.749 719.709C806.074 687.982 821.565 651.095 828.07 611.193H945.22V518.807H826.812C819.273 479.445 802.959 443.198 779.988 412.185L864.482 326.222L798.59 261.456L712.852 348.69ZM712.852 348.69C738.796 365.75 761.538 387.283 779.988 412.185L765.998 426.417H703.583V358.114L712.852 348.69ZM826.812 518.807H804.738L760.28 564.039L806.637 611.193H828.07C830.335 597.317 831.511 583.071 831.511 568.555C831.511 551.545 829.896 534.916 826.812 518.807ZM783.749 719.709L767.901 703.583H703.583V769.951L718.195 784.81C743.686 767.137 765.902 745.068 783.749 719.709ZM611.193 828.07V807.758L565.956 761.739L518.807 809.711V826.812C534.916 829.896 551.545 831.511 568.555 831.511C583.071 831.511 597.317 830.335 611.193 828.07ZM415.854 782.655L426.417 771.904V703.583H364.02L351.215 716.617C368.709 742.245 390.619 764.626 415.854 782.655ZM309.039 611.193H325.284L371.624 564.053L327.146 518.807H310.297C307.214 534.916 305.599 551.545 305.599 568.555C305.599 583.071 306.774 597.317 309.039 611.193ZM354.893 415.241C372.987 390.065 395.422 368.22 421.101 350.799L426.417 356.206V426.417H365.878L354.893 415.241ZM586.255 518.807L611.193 544.175V583.913L584.379 611.193H547.524L518.807 581.982V546.11L545.644 518.807H586.255Z"
        fill="#2DBE60" />
</svg>